<?xml version="1.0" encoding="utf-8"?>
<!-- Generator: Adobe Illustrator 24.3.0, SVG Export Plug-In . SVG Version: 6.00 Build 0)  -->
<svg version="1.1" id="Layer_1" xmlns="http://www.w3.org/2000/svg" xmlns:xlink="http://www.w3.org/1999/xlink" x="0px" y="0px"
	 viewBox="0 0 1920 1920" style="enable-background:new 0 0 1920 1920;" xml:space="preserve">
<style type="text/css">
	.st0{fill:#FFFFFF;}
</style>
<g>
	<path class="st0" d="M10,1546.33c4.28-21.05,7.58-42.35,13-63.1c30.67-117.37,100.93-207.84,194.78-281.23
		c123.34-96.46,265.73-147.72,418.99-170.82c144.77-21.82,288.36-14,430.31,22.19c36.52,9.31,57.53,33.72,55.1,64.07
		c-3.07,38.4-37.52,61.88-77.38,53.32c-38-8.15-75.83-18.28-114.28-23.02c-223.7-27.54-435.35,4.41-624.07,135.94
		c-80.43,56.05-142.01,128.62-167.26,226.21c-6.12,23.66-8.86,48.64-9.69,73.14c-1.57,46.32-0.71,92.73-0.72,139.1
		c-0.01,48.54,20.35,69.12,68.21,69.12c381.48,0,762.95-0.02,1144.43,0.09c9.18,0,18.73,0.18,27.47,2.6
		c25.29,7.01,39.77,24.92,42.86,50.37c3.03,24.99-8.16,44.31-29.38,57.69c-4.58,2.89-9.43,5.35-14.16,8.01
		c-403.26,0-806.51,0-1209.77,0c-2.8-1.1-5.5-2.61-8.4-3.24c-66.69-14.53-108.92-56.06-131.43-119.2
		c-3.46-9.69-5.77-19.79-8.61-29.71C10,1687.34,10,1616.84,10,1546.33z"/>
	<path class="st0" d="M833.83,10c40.48,10.5,82.68,16.72,121.14,32.23c169.18,68.26,272.83,239.68,255.44,417.87
		c-18.93,193.89-155.55,341.56-340.85,374.38C647.3,873.85,431.72,727.32,389.08,507.91C345.27,282.48,488.21,66.04,712.37,18.56
		c15.65-3.32,31.49-5.73,47.24-8.56C784.35,10,809.09,10,833.83,10z M1093.56,426.29c0-163.58-132.46-297.08-295.23-297.52
		C633.27,128.31,499.6,261.78,499.85,426.8C500.1,589.51,633.52,722.27,797,722.47C959.82,722.68,1093.55,589.12,1093.56,426.29z"/>
	<path class="st0" d="M1910,1360.78c-14.52,33.72-40.1,45.87-76.53,45.05c-76-1.71-152.07-0.52-228.11-0.52c-6.65,0-13.3,0-21.92,0
		c0,8.23,0,14.84,0,21.44c-0.01,81.61,0.2,163.21-0.14,244.82c-0.12,28.52-16.97,50.14-43.32,57.87
		c-24.2,7.09-51.57-1.8-64.51-24.22c-6.44-11.15-10.17-25.45-10.32-38.39c-0.91-79.74-0.45-159.5-0.45-239.25
		c0-6.69,0-13.39,0-22.27c-7.92,0-14.49,0-21.06,0c-81.61,0-163.21,0.44-244.81-0.18c-46.99-0.36-75.48-47.89-53.19-87.65
		c11.93-21.27,30.81-31.01,55.19-30.97c80.37,0.14,160.74,0.05,241.11,0.05c6.73,0,13.46,0,22.77,0c0-7.52,0-14.04,0-20.57
		c0-77.9-0.01-155.79,0-233.69c0-44.74,22.27-72.05,58.89-72.27c37.41-0.22,59.89,27.29,59.88,73.26c-0.01,83.44,0,166.87,0,253.26
		c7.09,0,13.56,0,20.04,0c76.66,0,153.35,1.21,229.97-0.52c36.48-0.83,62.03,11.32,76.54,45.06
		C1910,1340.99,1910,1350.89,1910,1360.78z"/>
</g>
</svg>
