<?xml version="1.0" encoding="utf-8"?>
<!-- Generator: Adobe Illustrator 24.3.0, SVG Export Plug-In . SVG Version: 6.00 Build 0)  -->
<svg version="1.1" id="Layer_1" xmlns="http://www.w3.org/2000/svg" xmlns:xlink="http://www.w3.org/1999/xlink" x="0px" y="0px"
	 viewBox="0 0 1920 1920" style="enable-background:new 0 0 1920 1920;" xml:space="preserve">
<style type="text/css">
	.st0{fill:#FFFFFF;}
</style>
<g id="bell">
	<path class="st0" d="M1895.1,1528.1l-247.74-304.07l-8.82-535.52c0.29-3.61,0.29-7.25,0-10.86
		C1560.49,252.76,1313.43,9.78,959.81,9.78c-373.3,0-673.3,271.49-746.6,666.51c-0.37,4.06-0.37,8.15,0,12.22l-8.82,542.98
		L19.09,1535.56c-12.12,21-12.12,46.87,0,67.87c11.7,21.4,33.99,34.87,58.37,35.29h610.86c0,149.94,121.55,271.49,271.49,271.49
		s271.49-121.55,271.49-271.49h610.86c26.11-0.07,49.86-15.12,61.09-38.69C1914.62,1576.49,1911.45,1548.51,1895.1,1528.1z
		 M959.81,1774.48c-74.97,0-135.75-60.78-135.75-135.75h271.49C1095.56,1713.7,1034.78,1774.48,959.81,1774.48z M197.6,1502.98
		l135.75-219.91c6.1-10.28,9.38-21.98,9.5-33.94l6.11-553.84c61.76-329.18,306.79-549.77,610.86-549.77
		c382.12,0,504.3,339.36,542.98,549.77l9.5,553.84c0.09,15.31,5.35,30.14,14.93,42.08l172.4,211.76H197.6z"/>
</g>
</svg>
