<?xml version="1.0" encoding="utf-8"?>
<!-- Generator: Adobe Illustrator 24.3.0, SVG Export Plug-In . SVG Version: 6.00 Build 0)  -->
<svg version="1.1" id="Layer_1" xmlns="http://www.w3.org/2000/svg" xmlns:xlink="http://www.w3.org/1999/xlink" x="0px" y="0px"
	 viewBox="0 0 250 250" style="enable-background:new 0 0 250 250;" xml:space="preserve">
<style type="text/css">
	.st0{fill:#FFFFFF;}
</style>
<g>
	<path class="st0" d="M184.89,108.56c1.75-1.48,2.8-2.34,3.82-3.23c14.1-12.33,28.22-24.64,42.27-37.04
		c2.83-2.49,5.73-4.15,9.5-2.52c3.82,1.65,4.52,4.98,4.52,8.72c-0.03,33.72-0.02,67.44,0,101.16c0,3.62-0.75,6.82-4.38,8.46
		c-3.57,1.61-6.47,0.32-9.25-2.13c-14.14-12.46-28.35-24.85-42.54-37.25c-1.04-0.91-2.11-1.81-3.93-3.37c0,2.14,0.05,3.46-0.01,4.77
		c-0.34,7.47,0.26,15.13-1.25,22.35c-3.92,18.67-20.12,31.21-40.1,31.36c-32.32,0.25-64.64,0.31-96.96-0.01
		c-24.05-0.24-41.21-17.73-41.43-41.77c-0.2-22.01-0.18-44.02-0.01-66.03c0.2-24.35,17.61-41.81,41.99-41.95
		c31.97-0.18,63.94-0.17,95.91,0c24.41,0.13,41.65,17.62,41.85,42C184.93,97.22,184.89,102.36,184.89,108.56z M94.82,184.96
		c16.04,0,32.08,0.05,48.13-0.02c16.18-0.07,27.11-11.04,27.13-27.15c0.02-21.66,0.02-43.32,0.01-64.97
		c-0.01-17.04-10.76-27.8-27.88-27.81c-31.5-0.03-63-0.03-94.5,0c-16.86,0.02-27.6,10.79-27.62,27.68
		c-0.03,21.42-0.03,42.85,0,64.27c0.02,17.35,10.66,27.97,28.03,28C63.67,184.98,79.24,184.96,94.82,184.96z M229.78,160.79
		c0-24.18,0-47.48,0-71.64c-13.95,12.21-27.34,23.92-40.95,35.82C202.53,136.96,215.82,148.58,229.78,160.79z"/>
</g>
</svg>
