<?xml version="1.0" encoding="utf-8"?>
<!-- Generator: Adobe Illustrator 24.3.0, SVG Export Plug-In . SVG Version: 6.00 Build 0)  -->
<svg version="1.1" id="car_x5F_parking" xmlns="http://www.w3.org/2000/svg" xmlns:xlink="http://www.w3.org/1999/xlink" x="0px"
	 y="0px" viewBox="0 0 250 250" style="enable-background:new 0 0 250 250;" xml:space="preserve">
<style type="text/css">
	.st0{fill:#FFFFFF;}
</style>
<path class="st0" d="M195.23,102.48L172.1,68.14c-3.17-4.71-8.48-7.54-14.16-7.54H125H92.06c-5.68,0-10.99,2.82-14.16,7.54
	l-3.35,4.97L55.36,102l-0.85,1.28c-1.42,2.18-3.86,3.5-6.49,3.5h-1h-7.94v0.02h-5.64c-7.04,0-13.36,4.33-15.92,10.89l-11.85,30.5
	c-2.53,6.52,2.28,13.55,9.27,13.55h29.67c0,15.27,12.38,27.65,27.65,27.65s27.65-12.38,27.65-27.65H125h25.08
	c0,15.27,12.38,27.65,27.65,27.65s27.65-12.38,27.65-27.65h29.67c7,0,11.81-7.03,9.27-13.55l-11.85-30.5
	c-2.55-6.57-8.87-10.89-15.92-10.89h-13.2C200.09,106.8,197.05,105.18,195.23,102.48z M72.28,174.22c-6.89,0-12.48-5.59-12.48-12.48
	c0-6.89,5.59-12.48,12.48-12.48c6.89,0,12.48,5.59,12.48,12.48C84.76,168.64,79.17,174.22,72.28,174.22z M117.39,102.03
	c0,2.44-1.98,4.42-4.42,4.42H81.7c-4.18,0-6.75-4.58-4.58-8.15l11.68-19.18c1.84-3.02,5.12-4.87,8.66-4.87h15.52
	c2.44,0,4.42,1.98,4.42,4.42V102.03z M137.03,106.45c-2.44,0-4.42-1.98-4.42-4.42V78.68c0-2.44,1.98-4.42,4.42-4.42h15.52
	c3.54,0,6.82,1.84,8.66,4.87l11.68,19.18c2.17,3.57-0.4,8.15-4.58,8.15L137.03,106.45L137.03,106.45z M177.72,174.22
	c-6.89,0-12.48-5.59-12.48-12.48c0-6.89,5.59-12.48,12.48-12.48c6.89,0,12.48,5.59,12.48,12.48
	C190.2,168.64,184.62,174.22,177.72,174.22z"/>
</svg>
