<?xml version="1.0" encoding="utf-8"?>
<!-- Generator: Adobe Illustrator 24.3.0, SVG Export Plug-In . SVG Version: 6.00 Build 0)  -->
<svg version="1.1" id="Layer_1" xmlns="http://www.w3.org/2000/svg" xmlns:xlink="http://www.w3.org/1999/xlink" x="0px" y="0px"
	 viewBox="0 0 250 250" style="enable-background:new 0 0 250 250;" xml:space="preserve">
<style type="text/css">
	.st0{fill:#3CB17E;}
</style>
<g>
	<path class="st0" d="M20.18,104.72c-1.93-0.31-3.32-0.4-4.62-0.77c-5.8-1.66-9.62-5.41-10.18-11.47c-0.47-5.11-0.1-10.31-0.1-15.83
		c1.05,0,2.04,0,3.03,0c7.97,0,15.94-0.06,23.9,0.04c1.91,0.02,2.72-0.64,3.33-2.44c4.35-12.88,8.61-25.79,13.31-38.53
		c4.99-13.54,17.05-21.73,31.49-21.76c29.56-0.06,59.11-0.06,88.67,0c14.49,0.03,26.41,8.1,31.48,21.75
		c4.7,12.65,8.91,25.48,13.22,38.26c0.67,1.97,1.53,2.76,3.69,2.73c7.97-0.13,15.94-0.05,23.9-0.05c1.01,0,2.01,0,3.71,0
		c-0.32,6.14-0.11,12.1-1.09,17.85c-0.94,5.58-6.37,9.43-12.05,9.86c-0.64,0.05-1.28,0.11-2.43,0.21c1.19,1.55,2.03,2.97,3.18,4.07
		c9.56,9.16,12.6,20.3,12.3,33.43c-0.62,27.41-0.19,54.83-0.19,82.25c0,8.52-3.24,11.76-11.74,11.76c-8.43,0-16.86,0.02-25.29,0
		c-6.89-0.02-10.46-3.55-10.49-10.41c-0.02-5.28-0.19-10.57,0.07-15.84c0.14-2.91-1.23-3.07-3.47-3.06
		c-37.06,0.04-74.12,0.03-111.18,0.03c-9.17,0-18.35,0.07-27.52-0.05c-2.34-0.03-3.04,0.76-2.98,3.03
		c0.13,5.28,0.09,10.56,0.03,15.84c-0.07,6.98-3.52,10.43-10.44,10.45c-8.8,0.03-17.6,0.04-26.41,0
		c-6.48-0.03-10.25-3.67-10.26-10.15c-0.05-30.76-0.05-61.52,0.01-92.28c0.01-6.98,2.2-13.25,6.82-18.63
		C14.62,111.78,17.21,108.41,20.18,104.72z M125.03,105.58c8.24,0,16.49,0,24.73,0c15.74,0,31.49,0.06,47.23-0.02
		c9.09-0.04,15.38-7.75,12.71-15.93c-5.59-17.13-11.32-34.22-17.37-51.19c-3.58-10.05-12.51-15.83-23.18-15.83
		c-29.64-0.02-59.27-0.02-88.91,0c-10.81,0.01-19.64,5.8-23.31,16.06c-5.7,15.92-11.03,31.96-16.39,48
		c-3.52,10.52,2.61,18.91,13.64,18.92C77.79,105.59,101.41,105.58,125.03,105.58z M13.8,138.46c1.27,0,2.28,0,3.28,0
		c8.89,0,17.79-0.01,26.68,0.01c13.39,0.03,22.48,8.93,22.84,22.33c0.16,5.81,1.78,7.44,7.53,7.44c34,0.01,68.01,0.01,102.01,0
		c5.68,0,7.19-1.51,7.36-7.23c0.4-13.64,9.61-22.55,23.29-22.55c8.71,0,17.42,0.01,26.13,0c0.98,0,1.97-0.08,3.03-0.13
		c0.65-6.75-0.27-12.73-4.72-17.9c-4.29-4.98-8.38-10.14-12.57-15.21c-0.62-0.75-1.3-1.45-2.17-2.4
		c-5.43,9.24-13.66,11.4-23.4,11.33c-32.06-0.22-64.12-0.08-96.17-0.08c-14.36,0-28.72-0.06-43.08,0.01
		c-8.55,0.04-15.26-3.19-19.83-10.53c-0.24-0.38-0.29-0.89-0.51-1.62c-5.42,6.7-10.1,12.68-14.99,18.48
		C14.1,125.61,13.13,131.57,13.8,138.46z M13.61,170.61c0,8.13,0,15.9,0,23.68c0,4.08,0.01,4.08,4.01,4.08c48.44,0,96.88,0,145.32,0
		c23.25,0,46.49-0.06,69.74,0.06c2.89,0.01,3.58-0.84,3.51-3.61c-0.19-7.13-0.06-14.26-0.07-21.39c0-0.9-0.09-1.79-0.14-2.65
		c-0.48-0.14-0.74-0.27-1-0.27c-14.54-0.02-29.08-0.05-43.62,0.02c-0.85,0-1.89,0.65-2.5,1.31c-2.92,3.17-6.44,4.87-10.78,4.86
		c-35.38-0.01-70.76-0.02-106.14-0.01c-4.04,0-7.26-1.67-10.17-4.37c-1.02-0.94-2.61-1.76-3.95-1.77
		c-13.71-0.13-27.41-0.08-41.12-0.07C15.78,170.48,14.88,170.55,13.61,170.61z M236.12,227.28c0-6.04-0.09-11.85,0.04-17.66
		c0.05-2.16-0.59-2.92-2.8-2.88c-6.67,0.12-13.33,0.05-20,0.05c-7.6-0.01-7.6-0.01-7.59,7.72c0,4.22,0,8.44,0,12.78
		C216,227.28,225.79,227.28,236.12,227.28z M13.74,227.09c0.55,0.15,0.81,0.28,1.07,0.28c8.98,0.02,17.96,0,26.93,0.06
		c1.7,0.01,1.99-0.81,1.98-2.23c-0.04-5.18-0.13-10.37,0.03-15.55c0.08-2.43-0.9-2.94-3.08-2.91c-7.96,0.1-15.92,0.03-23.88,0.05
		c-0.98,0-1.97,0.13-3.06,0.21C13.74,213.84,13.74,220.38,13.74,227.09z M57.93,161.66c0.7-7.83-5.09-14.44-12.58-14.51
		c-9.9-0.1-19.79-0.03-29.69-0.02c-0.61,0-1.22,0.16-1.84,0.25c0,4.83,0,9.49,0,14.28C28.6,161.66,43.18,161.66,57.93,161.66z
		 M235.99,147.21c-11.09,0-21.92-0.36-32.71,0.13c-6.9,0.31-12.08,7.74-10.82,14.26c14.46,0,28.93,0,43.53,0
		C235.99,156.79,235.99,152.19,235.99,147.21z M217.31,85.14c0.6,1.61,1,2.53,1.3,3.49c0.33,1.06,0.5,2.16,0.84,3.21
		c1,3.13,2.3,4.04,5.67,4.06c1.39,0.01,2.78,0.03,4.16,0c5.54-0.11,8.55-4.41,6.75-9.71c-0.15-0.45-0.89-1.01-1.36-1.01
		C229.07,85.11,223.46,85.14,217.31,85.14z M31.6,85.35c-6.05,0-11.9,0-17.71,0c-0.95,6.79,0.42,9.81,4.55,10.43
		C27.58,97.13,30.09,95.21,31.6,85.35z"/>
</g>
</svg>
