<?xml version="1.0" encoding="utf-8"?>
<!-- Generator: Adobe Illustrator 24.3.0, SVG Export Plug-In . SVG Version: 6.00 Build 0)  -->
<svg version="1.1" id="Layer_1" xmlns="http://www.w3.org/2000/svg" xmlns:xlink="http://www.w3.org/1999/xlink" x="0px" y="0px"
	 viewBox="0 0 1920 1920" style="enable-background:new 0 0 1920 1920;" xml:space="preserve">
<style type="text/css">
	.st0{fill:#FFFFFF;}
</style>
<g>
	<path class="st0" d="M130.17,799.42c-15.3-2.49-26.26-3.17-36.56-6.13c-45.89-13.18-76.18-42.83-80.63-90.77
		c-3.76-40.49-0.77-81.6-0.77-125.33c8.34,0,16.15,0,23.97,0c63.08-0.01,126.17-0.48,189.24,0.28c15.11,0.18,21.51-5.03,26.33-19.29
		c34.42-101.93,68.17-204.14,105.38-305.06C396.66,145.91,492.07,81.11,606.39,80.88c233.98-0.46,467.97-0.47,701.95,0.01
		c114.75,0.23,209.07,64.13,249.2,172.2c37.18,100.13,70.53,201.69,104.66,302.93c5.27,15.62,12.12,21.87,29.21,21.59
		c63.06-1.03,126.15-0.41,189.23-0.41c7.96,0,15.92,0,29.35,0c-2.56,48.6-0.91,95.76-8.62,141.33
		c-7.48,44.15-50.42,74.63-95.4,78.04c-5.06,0.38-10.11,0.85-19.23,1.63c9.45,12.24,16.1,23.49,25.18,32.19
		c75.67,72.49,99.71,160.69,97.37,264.63c-4.89,216.96-1.47,434.11-1.53,651.18c-0.02,67.45-25.68,93.1-92.95,93.13
		c-66.75,0.04-133.5,0.15-200.24,0c-54.58-0.12-82.78-28.13-83.03-82.38c-0.19-41.81-1.48-83.69,0.54-125.4
		c1.12-23.06-9.7-24.28-27.49-24.26c-293.4,0.34-586.79,0.24-880.19,0.24c-72.62,0-145.24,0.52-217.84-0.4
		c-18.52-0.23-24.05,6-23.59,23.98c1.06,41.78,0.71,83.61,0.27,125.42c-0.59,55.29-27.9,82.57-82.67,82.76
		c-69.68,0.24-139.36,0.28-209.04-0.04c-51.29-0.24-81.16-29.03-81.24-80.39c-0.39-243.51-0.42-487.01,0.08-730.52
		c0.11-55.24,17.44-104.91,53.97-147.51C86.19,855.35,106.62,828.65,130.17,799.42z M960.2,806.24c65.26,0,130.51,0,195.77,0
		c124.64,0,249.29,0.46,373.93-0.15c71.97-0.36,121.76-61.37,100.62-126.13c-44.27-135.6-89.62-270.89-137.49-405.25
		c-28.33-79.54-99.06-125.29-183.54-125.35c-234.63-0.16-469.25-0.17-703.88,0c-85.61,0.06-155.48,45.95-184.55,127.14
		c-45.12,126-87.31,253.05-129.77,379.99c-27.85,83.26,20.64,149.74,108,149.78C586.27,806.33,773.24,806.28,960.2,806.24z
		 M79.7,1066.55c10.04,0,18.02,0,26,0c70.42,0.01,140.83-0.11,211.25,0.06c106,0.26,177.95,70.71,180.78,176.78
		c1.23,45.99,14.1,58.9,59.58,58.91c269.2,0.06,538.39,0.06,807.59,0.01c44.97-0.01,56.9-11.92,58.24-57.25
		c3.19-107.94,76.05-178.5,184.36-178.5c68.95,0,137.9,0.04,206.85-0.03c7.8-0.01,15.59-0.64,23.99-1.01
		c5.14-53.41-2.14-100.79-37.38-141.7c-33.98-39.44-66.34-80.27-99.51-120.41c-4.9-5.93-10.31-11.44-17.17-19.01
		c-42.97,73.13-108.15,90.26-185.25,89.72c-253.78-1.78-507.58-0.63-761.37-0.62c-113.69,0-227.39-0.48-341.08,0.1
		c-67.71,0.35-120.82-25.28-157-83.4c-1.89-3.04-2.28-7.02-4.05-12.81c-42.91,53.06-79.92,100.41-118.68,146.28
		C82.04,964.85,74.32,1012.04,79.7,1066.55z M78.17,1321.05c0,64.39-0.03,125.91,0.01,187.44c0.02,32.28,0.07,32.3,31.71,32.3
		c383.48,0,766.95,0.01,1150.43,0c184.04,0,368.08-0.46,552.12,0.49c22.86,0.12,28.35-6.69,27.76-28.54
		c-1.52-56.42-0.48-112.9-0.57-169.36c-0.01-7.09-0.73-14.18-1.1-20.97c-3.8-1.08-5.84-2.17-7.89-2.17
		c-115.12-0.15-230.23-0.39-345.34,0.16c-6.7,0.03-14.97,5.12-19.79,10.35c-23.15,25.12-50.99,38.52-85.36,38.51
		c-280.09-0.11-560.19-0.15-840.28-0.11c-31.96,0-57.47-13.2-80.54-34.59c-8.04-7.45-20.67-13.93-31.27-14.02
		c-108.51-1-217.03-0.61-325.55-0.54C95.35,1320.01,88.19,1320.6,78.17,1321.05z M1839.72,1769.75c0-47.83-0.68-93.82,0.35-139.77
		c0.38-17.11-4.65-23.14-22.2-22.82c-52.77,0.95-105.57,0.41-158.36,0.36c-60.2-0.06-60.18-0.1-60.11,61.1
		c0.04,33.41,0.01,66.82,0.01,101.14C1680.44,1769.75,1757.95,1769.75,1839.72,1769.75z M79.16,1768.18
		c4.37,1.2,6.42,2.25,8.49,2.26c71.07,0.16,142.15-0.01,213.22,0.51c13.43,0.1,15.75-6.44,15.67-17.62
		c-0.29-41.03-1.06-82.09,0.27-123.08c0.62-19.25-7.11-23.27-24.39-23.06c-63.01,0.77-126.03,0.25-189.04,0.39
		c-7.8,0.02-15.59,1.06-24.2,1.68C79.16,1663.33,79.16,1715.13,79.16,1768.18z M429.05,1250.26c5.5-61.97-40.27-114.31-99.62-114.89
		c-78.35-0.76-156.71-0.24-235.06-0.12c-4.84,0.01-9.68,1.3-14.54,1.99c0,38.27,0,75.17,0,113.02
		C196.87,1250.26,312.25,1250.26,429.05,1250.26z M1838.7,1135.83c-87.77,0-173.53-2.86-258.98,1.03
		c-54.6,2.49-95.62,61.31-85.66,112.86c114.44,0,229.02,0,344.64,0C1838.7,1211.64,1838.7,1175.24,1838.7,1135.83z M1690.79,644.43
		c4.77,12.71,7.92,20.03,10.25,27.6c2.58,8.36,3.99,17.09,6.66,25.42c7.93,24.79,18.2,32,44.89,32.17
		c10.99,0.07,21.99,0.26,32.97,0.03c43.82-0.9,67.65-34.9,53.42-76.85c-1.22-3.59-7.02-7.97-10.75-8.01
		C1783.85,644.23,1739.46,644.43,1690.79,644.43z M220.55,646.08c-47.93,0-94.21,0-140.17,0c-7.5,53.75,3.29,77.65,36.06,82.54
		C188.74,739.4,208.6,724.15,220.55,646.08z"/>
</g>
</svg>
