<?xml version="1.0" encoding="utf-8"?>
<!-- Generator: Adobe Illustrator 24.3.0, SVG Export Plug-In . SVG Version: 6.00 Build 0)  -->
<svg version="1.1" id="Layer_1" xmlns="http://www.w3.org/2000/svg" xmlns:xlink="http://www.w3.org/1999/xlink" x="0px" y="0px"
	 viewBox="0 0 1920 1920" style="enable-background:new 0 0 1920 1920;" xml:space="preserve">
<style type="text/css">
	.st0{fill:#FFFFFF;}
</style>
<g>
	<g>
		<g>
			<path class="st0" d="M1555.32,313.1h-136.05c-16.77,0-30.36-13.59-30.36-30.36c0-16.77,13.59-30.36,30.36-30.36h136.05
				c16.77,0,30.36,13.59,30.36,30.36C1585.68,299.51,1572.09,313.1,1555.32,313.1z"/>
			<path class="st0" d="M1555.35,331.91h-136.1c-27.13,0-49.19-22.06-49.19-49.15c0-27.13,22.06-49.19,49.19-49.19h136.1
				c27.06,0,49.12,22.06,49.12,49.19C1604.47,309.85,1582.41,331.91,1555.35,331.91z M1419.25,271.21c-6.4,0-11.54,5.18-11.54,11.54
				s5.15,11.51,11.54,11.51h136.1c6.32,0,11.47-5.15,11.47-11.51s-5.15-11.54-11.47-11.54H1419.25z"/>
		</g>
	</g>
	<g>
		<g>
			<path class="st0" d="M1643.11,401.91c-16.77,0-30.36-13.59-30.36-30.36c0-32.23-25.77-58.45-57.44-58.45
				c-16.77,0-30.36-13.59-30.36-30.36c0-16.77,13.59-30.36,30.36-30.36c65.15,0,118.16,53.46,118.16,119.17
				C1673.47,388.32,1659.88,401.91,1643.11,401.91z"/>
			<path class="st0" d="M1643.14,420.74c-27.13,0-49.19-22.06-49.19-49.19c0-21.84-17.35-39.63-38.6-39.63
				c-27.13,0-49.19-22.06-49.19-49.15c0-27.13,22.06-49.19,49.19-49.19c75.51,0,136.91,61.91,136.91,137.98
				C1692.26,398.68,1670.2,420.74,1643.14,420.74z M1555.35,271.21c-6.47,0-11.54,5.07-11.54,11.54c0,6.36,5.15,11.51,11.54,11.51
				c42.06,0,76.25,34.67,76.25,77.28c0,12.61,23.01,12.76,23.01,0C1654.61,316.21,1610.06,271.21,1555.35,271.21z"/>
		</g>
	</g>
	<g>
		<g>
			<path class="st0" d="M1643.12,1812.31c-16.77,0-30.36-13.59-30.36-30.36V371.56c0-16.77,13.59-30.36,30.36-30.36
				s30.36,13.59,30.36,30.36v1410.39C1673.48,1798.72,1659.89,1812.31,1643.12,1812.31z"/>
			<path class="st0" d="M1643.14,1831.1c-27.13,0-49.19-22.06-49.19-49.19V371.54c0-27.1,22.06-49.15,49.19-49.15
				c27.13,0,49.19,22.06,49.19,49.15v1410.37C1692.33,1809.04,1670.28,1831.1,1643.14,1831.1z M1643.14,360.04
				c-6.4,0-11.54,5.15-11.54,11.51v1410.37c0,12.79,23.09,12.79,23.09,0V371.54C1654.69,365.18,1649.54,360.04,1643.14,360.04z"/>
		</g>
	</g>
	<g>
		<g>
			<path class="st0" d="M1555.32,1901.18c-16.77,0-30.36-13.59-30.36-30.36c0-16.77,13.59-30.36,30.36-30.36
				c31.67,0,57.44-26.25,57.44-58.51c0-16.77,13.59-30.36,30.36-30.36s30.36,13.59,30.36,30.36
				C1673.48,1847.69,1620.47,1901.18,1555.32,1901.18z"/>
			<path class="st0" d="M1555.35,1920c-27.13,0-49.19-22.06-49.19-49.19s22.06-49.19,49.19-49.19c21.25,0,38.6-17.79,38.6-39.71
				c0-27.06,22.06-49.12,49.19-49.12c27.13,0,49.19,22.06,49.19,49.12C1692.33,1858.09,1630.86,1920,1555.35,1920z M1643.14,1770.44
				c-6.4,0-11.54,5.15-11.54,11.47c0,42.65-34.19,77.35-76.25,77.35c-6.4,0-11.54,5.15-11.54,11.54s5.15,11.54,11.54,11.54
				c54.78,0,99.34-45.07,99.34-100.44C1654.69,1775.59,1649.54,1770.44,1643.14,1770.44z"/>
		</g>
	</g>
	<g>
		<g>
			<path class="st0" d="M1555.32,1901.18H364.64c-16.77,0-30.36-13.59-30.36-30.36c0-16.77,13.59-30.36,30.36-30.36h1190.68
				c16.77,0,30.36,13.59,30.36,30.36C1585.68,1887.59,1572.09,1901.18,1555.32,1901.18z"/>
			<path class="st0" d="M1555.35,1920H364.65c-27.13,0-49.19-22.06-49.19-49.19s22.06-49.19,49.19-49.19h1190.7
				c27.06,0,49.12,22.06,49.12,49.19S1582.41,1920,1555.35,1920z M364.65,1859.26c-6.36,0-11.54,5.15-11.54,11.54
				s5.18,11.54,11.54,11.54h1190.7c6.32,0,11.47-5.15,11.47-11.54s-5.15-11.54-11.47-11.54H364.65z"/>
		</g>
	</g>
	<g>
		<g>
			<path class="st0" d="M364.64,1901.18c-65.15,0-118.16-53.49-118.16-119.23c0-16.77,13.59-30.36,30.36-30.36
				c16.77,0,30.36,13.59,30.36,30.36c0,32.26,25.76,58.51,57.43,58.51c16.77,0,30.36,13.59,30.36,30.36
				C395,1887.59,381.41,1901.18,364.64,1901.18z"/>
			<path class="st0" d="M364.65,1920c-75.55,0-136.99-61.91-136.99-138.09c0-27.06,22.06-49.12,49.19-49.12s49.19,22.06,49.19,49.12
				c0,21.91,17.32,39.71,38.6,39.71c27.13,0,49.19,22.06,49.19,49.19S391.78,1920,364.65,1920z M276.86,1770.44
				c-6.36,0-11.54,5.15-11.54,11.47c0,55.37,44.56,100.44,99.34,100.44c6.36,0,11.54-5.15,11.54-11.54s-5.18-11.54-11.54-11.54
				c-42.06,0-76.25-34.71-76.25-77.35C288.4,1775.59,283.22,1770.44,276.86,1770.44z"/>
		</g>
	</g>
	<g>
		<g>
			<path class="st0" d="M276.85,1812.31c-16.77,0-30.36-13.59-30.36-30.36V371.56c0-16.77,13.59-30.36,30.36-30.36
				c16.77,0,30.36,13.59,30.36,30.36v1410.39C307.21,1798.72,293.61,1812.31,276.85,1812.31z"/>
			<path class="st0" d="M276.86,1831.1c-27.13,0-49.19-22.06-49.19-49.19V371.54c0-27.1,22.06-49.15,49.19-49.15
				s49.19,22.06,49.19,49.15v1410.37C326.05,1809.04,303.99,1831.1,276.86,1831.1z M276.86,360.04c-6.36,0-11.54,5.15-11.54,11.51
				v1410.37c0,12.79,23.09,12.79,23.09,0V371.54C288.4,365.18,283.22,360.04,276.86,360.04z"/>
		</g>
	</g>
	<g>
		<g>
			<path class="st0" d="M276.85,401.92c-16.77,0-30.36-13.59-30.36-30.36c0-65.71,53-119.17,118.16-119.17
				c16.77,0,30.36,13.59,30.36,30.36c0,16.77-13.59,30.36-30.36,30.36c-31.67,0-57.43,26.22-57.43,58.45
				C307.21,388.32,293.61,401.92,276.85,401.92z"/>
			<path class="st0" d="M276.86,420.74c-27.13,0-49.19-22.06-49.19-49.19c0-76.07,61.43-137.98,136.99-137.98
				c27.13,0,49.19,22.06,49.19,49.19c0,27.1-22.06,49.15-49.19,49.15c-21.29,0-38.6,17.79-38.6,39.63
				C326.05,398.68,303.99,420.74,276.86,420.74z M364.65,271.21c-54.78,0-99.34,45-99.34,100.33c0,12.72,23.09,12.72,23.09,0
				c0-42.61,34.19-77.28,76.25-77.28c6.36,0,11.54-5.15,11.54-11.51S371.01,271.21,364.65,271.21z"/>
		</g>
	</g>
	<g>
		<g>
			<path class="st0" d="M481.93,313.1H364.64c-16.77,0-30.36-13.59-30.36-30.36c0-16.77,13.59-30.36,30.36-30.36h117.29
				c16.77,0,30.36,13.59,30.36,30.36C512.29,299.51,498.7,313.1,481.93,313.1z"/>
			<path class="st0" d="M481.93,331.91H364.65c-27.13,0-49.19-22.06-49.19-49.15c0-27.13,22.06-49.19,49.19-49.19h117.28
				c27.13,0,49.19,22.06,49.19,49.19C531.12,309.85,509.06,331.91,481.93,331.91z M364.65,271.21c-6.36,0-11.54,5.18-11.54,11.54
				s5.18,11.51,11.54,11.51h117.28c6.36,0,11.54-5.15,11.54-11.51s-5.18-11.54-11.54-11.54H364.65z"/>
		</g>
	</g>
	<g>
		<g>
			<path class="st0" d="M1335.88,183.28h-226.16c-16.77,0-30.36-13.59-30.36-30.36v-19.33c0-16.77,13.59-30.36,30.36-30.36
				c12.88,0,23.88,8.01,28.29,19.33h197.87c16.77,0,30.36,13.59,30.36,30.36S1352.65,183.28,1335.88,183.28z"/>
			<path class="st0" d="M1335.86,202.1h-226.1c-27.13,0-49.19-22.06-49.19-49.19v-19.3c0-27.13,22.06-49.19,49.19-49.19
				c15.74,0,30,7.28,39.12,19.34h186.99c27.13,0,49.19,22.06,49.19,49.15C1385.06,180.04,1363,202.1,1335.86,202.1z M1109.76,122.06
				c-6.4,0-11.54,5.18-11.54,11.54v19.3c0,6.36,5.15,11.54,11.54,11.54h226.1c6.4,0,11.54-5.18,11.54-11.54
				c0-6.36-5.15-11.51-11.54-11.51h-210.74l-4.71-11.99C1118.73,124.93,1114.54,122.06,1109.76,122.06z"/>
		</g>
	</g>
	<g>
		<g>
			<path class="st0" d="M1109.72,163.95c-16.77,0-30.36-13.59-30.36-30.36c0-29.8-23.73-54.05-52.91-54.05
				c-16.77,0-30.36-13.59-30.36-30.36s13.59-30.36,30.36-30.36c62.66,0,113.63,51.48,113.63,114.77
				C1140.09,150.36,1126.49,163.95,1109.72,163.95z"/>
			<path class="st0" d="M1109.76,182.76c-27.13,0-49.19-22.06-49.19-49.15c0-19.41-15.29-35.22-34.12-35.22
				c-27.13,0-49.19-22.06-49.19-49.19S999.32,0,1026.45,0c73.01,0,132.43,59.93,132.43,133.6
				C1158.88,160.7,1136.82,182.76,1109.76,182.76z M1026.45,37.65c-6.4,0-11.54,5.18-11.54,11.54s5.15,11.54,11.54,11.54
				c39.56,0,71.76,32.68,71.76,72.87c0,12.65,23.01,12.79,23.01,0C1121.23,80.7,1078.73,37.65,1026.45,37.65z"/>
		</g>
	</g>
	<g>
		<g>
			<path class="st0" d="M1026.45,79.54H893.68c-16.77,0-30.36-13.59-30.36-30.36s13.59-30.36,30.36-30.36h132.77
				c16.77,0,30.36,13.59,30.36,30.36S1043.22,79.54,1026.45,79.54z"/>
			<path class="st0" d="M1026.45,98.38H893.69c-27.13,0-49.19-22.06-49.19-49.19S866.56,0,893.69,0h132.76
				c27.13,0,49.19,22.06,49.19,49.19S1053.58,98.38,1026.45,98.38z M893.69,37.65c-6.36,0-11.54,5.18-11.54,11.54
				s5.18,11.54,11.54,11.54h132.76c6.4,0,11.54-5.18,11.54-11.54s-5.15-11.54-11.54-11.54H893.69z"/>
		</g>
	</g>
	<g>
		<g>
			<path class="st0" d="M810.18,163.95c-16.77,0-30.36-13.59-30.36-30.36c0-63.28,51.08-114.77,113.86-114.77
				c16.77,0,30.36,13.59,30.36,30.36s-13.59,30.36-30.36,30.36c-29.3,0-53.14,24.24-53.14,54.05
				C840.54,150.36,826.95,163.95,810.18,163.95z"/>
			<path class="st0" d="M810.17,182.76c-27.1,0-49.15-22.06-49.15-49.15C761.01,59.93,820.53,0,893.69,0
				c27.1,0,49.15,22.06,49.15,49.19s-22.06,49.19-49.15,49.19c-18.93,0-34.34,15.81-34.34,35.22
				C859.36,160.7,837.3,182.76,810.17,182.76z M893.69,37.65c-52.39,0-95.04,43.05-95.04,95.96c0,12.72,23.05,12.72,23.05,0
				c0-40.18,32.28-72.87,71.99-72.87c6.36,0,11.51-5.18,11.51-11.54S900.06,37.65,893.69,37.65z"/>
		</g>
	</g>
	<g>
		<g>
			<path class="st0" d="M810.18,183.28H584.24c-16.77,0-30.36-13.59-30.36-30.36s13.59-30.36,30.36-30.36h197.64
				c4.42-11.31,15.42-19.33,28.29-19.33c16.77,0,30.36,13.59,30.36,30.36v19.33C840.54,169.68,826.95,183.28,810.18,183.28z"/>
			<path class="st0" d="M810.17,202.1H584.25c-27.13,0-49.19-22.06-49.19-49.19c0-27.1,22.06-49.15,49.19-49.15h186.8
				c9.12-12.06,23.38-19.34,39.12-19.34c27.13,0,49.19,22.06,49.19,49.19v19.3C859.36,180.04,837.3,202.1,810.17,202.1z
				 M584.25,141.4c-6.36,0-11.54,5.15-11.54,11.51c0,6.36,5.18,11.54,11.54,11.54h225.92c6.36,0,11.54-5.18,11.54-11.54v-19.3
				c-0.04-11.14-18.31-14.71-22.28-4.19l-4.67,11.99H584.25z"/>
		</g>
	</g>
	<g>
		<g>
			<path class="st0" d="M500.86,267.79c-16.77,0-30.36-13.59-30.36-30.36c0-63.34,51.03-114.88,113.75-114.88
				c16.77,0,30.36,13.59,30.36,30.36s-13.59,30.36-30.36,30.36c-29.24,0-53.03,24.29-53.03,54.15
				C531.22,254.2,517.63,267.79,500.86,267.79z"/>
			<path class="st0" d="M500.86,286.62c-27.13,0-49.19-22.06-49.19-49.19c0-73.71,59.49-133.68,132.57-133.68
				c27.13,0,49.19,22.06,49.19,49.15c0,27.13-22.06,49.19-49.19,49.19c-18.86,0-34.19,15.85-34.19,35.33
				C550.06,264.56,528,286.62,500.86,286.62z M584.25,141.4c-52.35,0-94.93,43.09-94.93,96.03c0,12.72,23.09,12.72,23.09,0
				c0-40.26,32.24-72.98,71.84-72.98c6.36,0,11.54-5.18,11.54-11.54C595.79,146.54,590.61,141.4,584.25,141.4z"/>
		</g>
	</g>
	<g>
		<g>
			<path class="st0" d="M1419.27,447.34H500.86c-16.77,0-30.36-13.59-30.36-30.36V237.43c0-16.77,13.59-30.36,30.36-30.36
				c16.77,0,30.36,13.59,30.36,30.36v149.19h857.69V237.43c0-16.77,13.59-30.36,30.36-30.36s30.36,13.59,30.36,30.36v179.55
				C1449.63,433.75,1436.04,447.34,1419.27,447.34z"/>
			<path class="st0" d="M1419.25,466.18H500.86c-27.13,0-49.19-22.06-49.19-49.19V237.43c0-27.13,22.06-49.19,49.19-49.19
				s49.19,22.06,49.19,49.19v130.37h820V237.43c0-27.13,22.06-49.19,49.19-49.19s49.19,22.06,49.19,49.19v179.56
				C1468.44,444.12,1446.38,466.18,1419.25,466.18z M500.86,225.88c-6.36,0-11.54,5.18-11.54,11.54v179.56
				c0,6.36,5.18,11.54,11.54,11.54h918.38c6.4,0,11.54-5.18,11.54-11.54V237.43c0-12.72-23.09-12.72-23.09,0v168.01H512.41V237.43
				C512.41,231.07,507.22,225.88,500.86,225.88z"/>
		</g>
	</g>
	<g>
		<g>
			<path class="st0" d="M1419.27,267.79c-16.77,0-30.36-13.59-30.36-30.36c0-29.86-23.79-54.15-53.03-54.15
				c-16.77,0-30.36-13.59-30.36-30.36s13.59-30.36,30.36-30.36c62.72,0,113.75,51.53,113.75,114.88
				C1449.63,254.2,1436.04,267.79,1419.27,267.79z"/>
			<path class="st0" d="M1419.25,286.62c-27.13,0-49.19-22.06-49.19-49.19c0-19.49-15.37-35.33-34.19-35.33
				c-27.13,0-49.19-22.06-49.19-49.19c0-27.1,22.06-49.15,49.19-49.15c73.09,0,132.57,59.96,132.57,133.68
				C1468.44,264.56,1446.38,286.62,1419.25,286.62z M1335.86,141.4c-6.4,0-11.54,5.15-11.54,11.51c0,6.36,5.15,11.54,11.54,11.54
				c39.63,0,71.84,32.72,71.84,72.98c0,12.72,23.09,12.72,23.09,0C1430.79,184.49,1388.22,141.4,1335.86,141.4z"/>
		</g>
	</g>
	<g>
		<g>
			<g>
				<path class="st0" d="M580.34,943.78c-7.4,0-14.82-2.69-20.67-8.13l-75.37-70.11c-12.28-11.42-12.97-30.63-1.55-42.91
					c11.42-12.28,30.63-12.97,42.91-1.55l75.37,70.11c12.28,11.42,12.97,30.63,1.55,42.91
					C596.59,940.52,588.48,943.78,580.34,943.78z"/>
				<path class="st0" d="M580.35,962.65c-12.5,0-24.41-4.71-33.53-13.2l-75.37-70.11c-19.82-18.53-20.92-49.71-2.5-69.52
					c18.42-19.93,49.6-21.03,69.49-2.54l75.4,70.11c9.6,8.97,15.18,21.14,15.66,34.23c0.44,13.12-4.23,25.66-13.16,35.29
					C607.11,956.88,593.99,962.65,580.35,962.65z M504.98,831.76c-3.12,0-6.21,1.25-8.46,3.68c-4.34,4.63-4.04,11.99,0.59,16.36
					l75.37,70.07c3.53,3.2,8.71,7.61,16.25-0.59c4.38-4.67,4.12-11.99-0.55-16.32l-75.37-70.11
					C510.61,832.79,507.78,831.76,504.98,831.76z"/>
			</g>
		</g>
		<g>
			<g>
				<path class="st0" d="M580.33,943.78c-7.26,0-14.55-2.59-20.36-7.85c-12.43-11.25-13.39-30.45-2.14-42.88l138.42-152.99
					c11.25-12.43,30.45-13.39,42.88-2.14c12.43,11.25,13.39,30.45,2.14,42.88L602.86,933.78
					C596.86,940.41,588.61,943.78,580.33,943.78z"/>
				<path class="st0" d="M580.35,962.57c-12.21,0-23.93-4.49-33.01-12.68c-20.07-18.2-21.65-49.38-3.46-69.49L682.3,727.43
					c8.82-9.74,20.88-15.48,34.01-16.14c13.57-0.11,25.74,3.82,35.48,12.65c20.07,18.2,21.62,49.38,3.46,69.49L616.82,946.43
					C607.48,956.73,594.21,962.57,580.35,962.57z M718.81,748.9c-0.22,0-0.4,0-0.59,0c-3.09,0.15-5.92,1.51-7.98,3.79L571.82,905.7
					c-4.26,4.71-3.93,11.99,0.81,16.25c7.17,6.62,12.72,3.2,16.25-0.81L727.3,768.16c4.26-4.71,3.93-12.02-0.81-16.29
					C724.36,749.93,721.64,748.9,718.81,748.9z"/>
			</g>
		</g>
	</g>
	<g>
		<g>
			<path class="st0" d="M1415.15,882.93H850.18c-16.77,0-30.36-13.59-30.36-30.36s13.59-30.36,30.36-30.36h564.97
				c16.77,0,30.36,13.59,30.36,30.36S1431.92,882.93,1415.15,882.93z"/>
			<path class="st0" d="M1415.13,901.76H850.17c-27.1,0-49.15-22.06-49.15-49.19c0-27.13,22.06-49.19,49.15-49.19h564.96
				c27.13,0,49.19,22.06,49.19,49.19C1464.32,879.71,1442.26,901.76,1415.13,901.76z M850.17,841.03c-6.36,0-11.51,5.18-11.51,11.54
				s5.15,11.54,11.51,11.54h564.96c6.4,0,11.54-5.18,11.54-11.54s-5.15-11.54-11.54-11.54H850.17z"/>
		</g>
	</g>
	<g>
		<g>
			<path class="st0" d="M1415.15,1567.45H850.18c-16.77,0-30.36-13.59-30.36-30.36c0-16.77,13.59-30.36,30.36-30.36h564.97
				c16.77,0,30.36,13.59,30.36,30.36C1445.51,1553.86,1431.92,1567.45,1415.15,1567.45z"/>
			<path class="st0" d="M1415.13,1586.25H850.17c-27.1,0-49.15-22.06-49.15-49.19c0-27.06,22.06-49.12,49.15-49.12h564.96
				c27.13,0,49.19,22.06,49.19,49.12C1464.32,1564.19,1442.26,1586.25,1415.13,1586.25z M850.17,1525.59
				c-6.36,0-11.51,5.15-11.51,11.47c0,6.4,5.15,11.54,11.51,11.54h564.96c6.4,0,11.54-5.15,11.54-11.54
				c0-6.32-5.15-11.47-11.54-11.47H850.17z"/>
		</g>
	</g>
	<g>
		<g>
			<path class="st0" d="M1415.15,1230.17H850.18c-16.77,0-30.36-13.59-30.36-30.36c0-16.77,13.59-30.36,30.36-30.36h564.97
				c16.77,0,30.36,13.59,30.36,30.36C1445.51,1216.57,1431.92,1230.17,1415.15,1230.17z"/>
			<path class="st0" d="M1415.13,1248.97H850.17c-27.1,0-49.15-22.06-49.15-49.19s22.06-49.19,49.15-49.19h564.96
				c27.13,0,49.19,22.06,49.19,49.19S1442.26,1248.97,1415.13,1248.97z M850.17,1188.24c-6.36,0-11.51,5.15-11.51,11.54
				s5.15,11.54,11.51,11.54h564.96c6.4,0,11.54-5.15,11.54-11.54s-5.15-11.54-11.54-11.54H850.17z"/>
		</g>
	</g>
</g>
</svg>
