<?xml version="1.0" encoding="utf-8"?>
<!-- Generator: Adobe Illustrator 24.3.0, SVG Export Plug-In . SVG Version: 6.00 Build 0)  -->
<svg version="1.1" id="Layer_1" xmlns="http://www.w3.org/2000/svg" xmlns:xlink="http://www.w3.org/1999/xlink" x="0px" y="0px"
	 viewBox="0 0 1920 1493.65" style="enable-background:new 0 0 1920 1493.65;" xml:space="preserve">
<style type="text/css">
	.st0{fill:#FFFFFF;}
</style>
<g>
	<path class="st0" d="M10,639.11c9.7-14.81,23.32-19.56,40.91-19.12c40.78,1.02,81.6,0.57,122.41,0.53
		c68.11-0.06,123.26,26.01,165.42,80.05c32.31,41.43,66.99,81.06,98.3,123.21c48.19,64.86,110.73,100.38,191.56,109.34
		c62.46,6.92,124.29,20.33,186.06,32.53c74.47,14.7,114.19,63.48,115.48,139.29c0.46,27.2,0.17,54.41,0.16,81.62
		c-0.05,78.52-49.85,129.37-129,131.56c-12.93,0.36-25.89,0.05-40.23,0.05c-10.49,50.25-35.38,90.77-78.15,119.11
		c-31.34,20.77-66.02,30.2-103.54,29.19c-81-2.18-139.08-52.33-169.87-148.19c-5.79,0-12.34,0-18.88,0
		c-112.53,0-225.06-0.34-337.58,0.34c-18.12,0.11-32.51-3.83-43.03-18.88c0-81.65,0-163.3,0-244.95
		c10.33-11.85,21.05-23.26,39.04-16.7c18.6,6.78,20.58,22.16,20.46,39.32c-0.39,53.79-0.14,107.58-0.14,161.37
		c0,6.48,0,12.97,0,19.56c115.32,0,227.75,0,339.96,0c36.32-100.6,92.63-147.74,176.42-147.33c36.76,0.18,70.63,10.66,100.9,31.86
		c40.35,28.26,63.98,67.52,74.06,115.72c15.27,0,29.51,0.98,43.58-0.18c44.7-3.68,66.69-27.81,66.66-72.09
		c-0.02-28.44,0.48-56.9-0.42-85.31c-1.37-43.53-19.55-66.93-61.93-75.65c-55.01-11.32-110.39-20.91-165.82-30.05
		c-43.12-7.11-86.48-17.01-129.84-17.62c-153.28-2.15-306.61-1.09-459.93-0.51c-18.09,0.07-32.53-3.76-43.02-18.87
		c0-7.42,0-14.85,0-22.27c10.47-15.16,24.92-18.97,43.02-18.87c121.82,0.64,243.64,0.33,365.46,0.33c6.47,0,12.94,0,21.4,0
		c-17.26-20.23-32.73-37.67-47.44-55.74c-34.35-42.19-68.8-84.31-102.3-127.17c-29.78-38.09-68.99-54.54-116.25-54.66
		c-40.19-0.1-80.41-0.95-120.57,0.06c-18.09,0.45-32.43-4.08-43.31-18.6C10,653.95,10,646.53,10,639.11z M704.04,1288.22
		c-0.14-65.72-53.58-118.7-119.39-118.36c-64.62,0.33-117.72,53.5-117.98,118.14c-0.27,65.43,53.3,119.29,118.69,119.32
		C651.06,1407.34,704.18,1354.04,704.04,1288.22z"/>
	<path class="st0" d="M1910,1299.73c-10.65,14.73-24.83,19.02-43,18.9c-111.25-0.72-222.5-0.36-333.75-0.36c-7.38,0-14.77,0-23.4,0
		c-11.12,51.53-36.89,92.98-81.64,121.07c-31.21,19.6-65.54,28.49-102.34,26.85c-80.54-3.6-137.02-53.13-167.02-145.8
		c-23.4-1.91-47.12-1.63-69.89-6.13c-62.85-12.43-99.09-58.13-99.25-122.14c-0.08-29.67-0.45-59.35,0.23-89.01
		c1.7-74.42,42.32-123.34,115.58-137.23c73.98-14.04,148.14-27.25,222.48-39.25c53.99-8.71,97.48-34.98,131.98-75.76
		c41.9-49.52,82.45-100.21,122.49-151.26c41.5-52.92,95.68-78.22,162.16-78.75c40.79-0.32,81.6,0.52,122.36-0.65
		c18.14-0.52,32.53,3.78,43.02,18.89c0,7.42,0,14.85,0,22.27c-10.54,15-24.88,19.45-43.03,18.9c-37.05-1.11-74.18,0.33-111.25-0.4
		c-55.1-1.09-98.97,18.42-132.93,63.29c-38.02,50.24-78.83,98.36-118.63,147.24c-7.07,8.68-15.14,16.55-24.83,27.06
		c10.66,0,17.42,0,24.19,0c121.16,0,242.32,0.31,363.47-0.34c18.1-0.1,32.53,3.77,43.02,18.88c0,7.42,0,14.85,0,22.27
		c-10.54,15.01-24.93,18.97-43.04,18.89c-144.08-0.6-288.16-0.8-432.24-0.01c-31.89,0.17-64.09,2.67-95.58,7.71
		c-75.59,12.1-151.04,25.33-226.16,40.11c-44.14,8.68-62.53,33.1-63.61,78.27c-0.72,30.29-0.4,60.6-0.26,90.91
		c0.13,29.57,12,49.17,40.32,57.25c22.05,6.29,45.7,6.99,67.93,10.07c30.35-97.73,89.66-148.88,171.48-150.81
		c87.4-2.06,145.31,44.85,181.55,147.18c112.84,0,225.72,0,340.16,0c0-7.69,0-14.37,0-21.05c0-55.66-0.75-111.34,0.67-166.96
		c0.26-9.99,7.26-22.9,15.3-28.63c6.51-4.64,19.65-2.06,29.1,0.31c5.55,1.39,9.63,8.64,14.36,13.26
		C1910,1136.43,1910,1218.08,1910,1299.73z M1215.95,1289.2c0.22,65.63,53.83,118.56,119.64,118.11
		c64.58-0.44,117.6-53.77,117.74-118.44c0.14-65.46-53.48-119.09-118.98-119.02C1268.65,1169.92,1215.74,1223.26,1215.95,1289.2z"/>
	<path class="st0" d="M430.49,236.8c10.72,6.92,20.18,10.64,26.37,17.37C570.65,378.01,684.1,502.16,797.48,626.38
		c14.38,15.76,14.47,34.07,1.27,45.93c-13.41,12.04-30.99,10.08-45.61-5.89C639.56,542.37,526.14,418.19,412.56,294.16
		c-9.77-10.67-14.26-23.3-7.21-35.49C410.26,250.18,420.77,244.93,430.49,236.8z"/>
	<path class="st0" d="M930.32,314.44c-0.01-81.53-0.01-163.07,0-244.6c0-5.56-0.54-11.23,0.39-16.65
		c2.74-16,12.44-25.78,28.78-26.07c16.39-0.29,26.36,9.24,29.6,25.12c1.1,5.36,0.57,11.08,0.57,16.63
		c0.02,163.68,0.01,327.37-0.01,491.05c0,4.94,0.3,9.93-0.28,14.81c-1.93,16.21-14.41,27.42-29.83,27.17
		c-15.49-0.25-27.38-11.6-29.01-28.05c-0.49-4.9-0.21-9.87-0.21-14.81C930.33,477.51,930.33,395.98,930.32,314.44z"/>
	<path class="st0" d="M1520.79,268.17c-6.41,11.25-9.58,20.18-15.47,26.66c-112.56,123.98-225.4,247.72-338.31,371.38
		c-14.74,16.14-32.24,17.95-45.52,5.7c-13.13-12.1-12.6-29.77,2-45.83c112.18-123.49,224.51-246.84,336.6-370.42
		c10.54-11.62,23.02-19.23,37.37-11.99C1506.62,248.29,1512.6,259.22,1520.79,268.17z"/>
	<path class="st0" d="M180.25,1095.48c-7.42,0-14.87,0.47-22.24-0.09c-17.51-1.34-29.35-13.77-29.09-29.92
		c0.25-15.51,11.54-27.94,28.11-28.87c16.01-0.9,32.17-0.98,48.17,0.07c16.3,1.08,27.53,14.24,27.27,29.65
		c-0.25,15.45-11.62,27.52-28.14,28.98c-7.97,0.7-16.06,0.12-24.09,0.12C180.25,1095.44,180.25,1095.46,180.25,1095.48z"/>
	<path class="st0" d="M1738.85,1095.48c-7.42,0-14.87,0.47-22.24-0.09c-17.51-1.34-29.35-13.77-29.09-29.92
		c0.25-15.51,11.54-27.93,28.11-28.87c16.01-0.9,32.17-0.98,48.17,0.07c16.3,1.08,27.52,14.24,27.27,29.65
		c-0.25,15.45-11.62,27.52-28.14,28.98c-7.97,0.7-16.06,0.12-24.09,0.12C1738.85,1095.44,1738.85,1095.46,1738.85,1095.48z"/>
</g>
</svg>
