<?xml version="1.0" encoding="utf-8"?>
<!-- Generator: Adobe Illustrator 24.3.0, SVG Export Plug-In . SVG Version: 6.00 Build 0)  -->
<svg version="1.1" id="Layer_1" xmlns="http://www.w3.org/2000/svg" xmlns:xlink="http://www.w3.org/1999/xlink" x="0px" y="0px"
	 viewBox="0 0 1920 1920" style="enable-background:new 0 0 1920 1920;" xml:space="preserve">
<style type="text/css">
	.st0{fill:#FFFFFF;}
</style>
<g>
	<path class="st0" d="M1435.13,1910.41c-236.12-0.26-425.18-190.45-426.51-426.4c-1.21-214.19,165.93-427.53,427.88-427.49
		c241.62,0.04,426.57,188.02,426.44,426.6C1862.8,1744.59,1649.48,1913.24,1435.13,1910.41z M1167.08,1682.54
		c4.91-3.01,7.06-3.83,8.55-5.31c68.33-68.18,136.82-136.2,204.48-205.03c5.72-5.82,8.23-17.08,8.29-25.84
		c0.58-91.32,0.39-182.64,0.3-273.96c-0.01-5.68-0.9-11.36-1.38-16.99c-101.68,5.93-212.39,88.67-256.95,194.36
		C1081.23,1466.34,1095.73,1576.86,1167.08,1682.54z M1236.89,1750.02c97.07,78.1,244.28,89.44,357.02,27.09
		c96.44-53.34,153.18-135.2,172.09-246.44c-99.76,0-195.46-0.5-291.14,0.66c-11.6,0.14-25.81,6.46-34.2,14.64
		c-63.28,61.63-125.41,124.44-187.86,186.93C1247.66,1738.03,1242.89,1743.54,1236.89,1750.02z M1483.85,1155.66
		c-0.68,4.14-1.54,6.97-1.55,9.79c-0.1,84.6,0.21,169.21-0.43,253.81c-0.12,15.62,6.57,18.28,20.06,18.21
		c81.65-0.42,163.3-0.14,244.95-0.28c5.51-0.01,11.02-1.5,16.38-2.28C1752.89,1300.28,1624.94,1168.28,1483.85,1155.66z"/>
	<path class="st0" d="M674.21,1199.1c0,216.2,0.01,432.4-0.01,648.6c0,48.38-14.19,62.69-62.12,62.73c-53.5,0.04-107,0.05-160.5,0
		c-46.72-0.04-61.62-14.7-61.62-60.99c-0.04-335.08-0.02-670.15-0.02-1005.23c0-100.3-0.05-200.6,0.04-300.9
		c0.04-39.79,17.15-57.52,56.53-57.77c56.47-0.35,112.95-0.28,169.42-0.03c41.2,0.18,58.24,17.32,58.25,58.29
		C674.25,762.24,674.21,980.67,674.21,1199.1z M580.83,1816.17c0-10.46,0-18.48,0-26.51c0-393.56,0-787.12-0.01-1180.69
		c0-5.94,1.23-12.33-0.58-17.68c-1.5-4.43-6.55-10.75-10.2-10.86c-27.96-0.9-55.97-0.5-85.05-0.5c0,413.6,0,824.45,0,1236.24
		C516.89,1816.17,547.12,1816.17,580.83,1816.17z"/>
	<path class="st0" d="M1183.38,313.36c-69.26,46.12-136.54,90.92-203.82,135.72c-11.13,7.41-22.16,14.96-33.36,22.26
		c-29.38,19.12-48.55,17.41-73.34-7.33c-93.61-93.44-187.16-186.93-280.51-280.63c-19.33-19.4-37.69-39.75-57.97-61.22
		c-9.16,8.7-15.57,14.53-21.69,20.64C376.04,279.36,239.43,415.96,102.78,552.52c-5.77,5.77-11.36,11.89-17.83,16.77
		c-19.66,14.83-46.45,12.43-62.67-5.05c-15.56-16.76-16.48-42.73-1.84-61.21c4.13-5.21,9.1-9.78,13.83-14.5
		c151.32-151.32,302.64-302.64,454-453.91c33.78-33.76,54.13-33.58,88.53,0.8c107.75,107.67,215.47,215.36,323.06,323.19
		c5.74,5.75,10.12,12.87,15.58,19.94c10.88-6.85,18.4-11.36,25.69-16.22c74.15-49.43,148.19-99,222.4-148.34
		c34.17-22.72,57.96-17.42,79.99,17.74c59.91,95.63,119.67,191.36,179.51,287.04c4.69,7.5,9.46,14.94,15.71,24.79
		c5.75-6.8,10.51-11.89,14.68-17.43c27.69-36.8,55.49-73.51,82.76-110.62c12.38-16.85,27.83-25.33,49.12-25.24
		c90.66,0.41,181.32,0.01,271.97,0.26c32.69,0.09,52.97,18.75,52.77,47.3c-0.2,28.84-19.68,45.81-53.66,45.89
		c-76.54,0.19-153.09,0.52-229.62-0.28c-17.15-0.18-28.49,4.26-38.92,18.82c-33.72,47.09-69.16,92.96-103.9,139.33
		c-34.2,45.66-66.58,44.63-96.5-3.17c-63.41-101.33-126.79-202.68-190.2-304.01C1193.29,328.17,1189.12,322.09,1183.38,313.36z"/>
	<path class="st0" d="M10.04,1412.56c0-146.34-0.02-292.68,0.01-439.03c0.01-44.54,15.62-60.04,60.46-60.1
		c54.98-0.07,109.96-0.17,164.94,0.03c41.05,0.15,58.26,17.21,58.28,58.44c0.13,293.43,0.15,586.85,0.01,880.28
		c-0.02,42.3-16.07,58.13-57.75,58.24c-57.21,0.15-114.42,0.16-171.62-0.03c-37.76-0.12-54.23-16.49-54.26-54.36
		C9.96,1708.21,10.04,1560.39,10.04,1412.56z M104.76,1815.26c32.27,0,62.94,0,93.19,0c0-269.69,0-537.52,0-806.41
		c-31.73,0-61.81,0-93.19,0C104.76,1277.93,104.76,1545.82,104.76,1815.26z"/>
	<path class="st0" d="M960.71,1008.53c-32.73,0-62.31,0-94.02,0c0,268.79,0,537.16,0,808.57c41.8,0,83.9-0.15,125.99,0.12
		c9.56,0.06,19.53,0.12,28.59,2.71c22.91,6.53,35.5,27.74,32.22,51.72c-2.9,21.23-19.94,38.05-42.55,38.31
		c-65.38,0.74-130.77,0.73-196.15,0.05c-22.92-0.24-38.66-15.14-42.74-37.91c-1.56-8.69-1.64-17.72-1.64-26.6
		c-0.08-288.99-0.08-577.99-0.05-866.98c0.01-50.22,14.86-65,65.12-65.06c53.5-0.06,107-0.18,160.49,0.04
		c42.09,0.17,57.95,16.03,58.06,57.92c0.16,57.95,0.23,115.9-0.07,173.84c-0.17,32.19-17.5,51.39-45.57,51.7
		c-28.63,0.32-47.38-19.94-47.62-52.48C960.46,1100.04,960.71,1055.59,960.71,1008.53z"/>
</g>
</svg>
