<?xml version="1.0" encoding="utf-8"?>
<!-- Generator: Adobe Illustrator 24.3.0, SVG Export Plug-In . SVG Version: 6.00 Build 0)  -->
<svg version="1.1" id="Layer_1" xmlns="http://www.w3.org/2000/svg" xmlns:xlink="http://www.w3.org/1999/xlink" x="0px" y="0px"
	 viewBox="0 0 1920 1920" style="enable-background:new 0 0 1920 1920;" xml:space="preserve">
<style type="text/css">
	.st0{fill:#F1EB9C;}
</style>
<g>
	<path class="st0" d="M255.16,868.06c0-33.85-27.44-61.29-61.29-61.29h-61.29V132.58h674.19v674.19H408.39
		c-33.85,0-61.29,27.44-61.29,61.29s27.44,61.29,61.29,61.29h459.68c33.85,0,61.29-27.44,61.29-61.29V71.29
		c0-33.85-27.44-61.29-61.29-61.29H71.29C37.44,10,10,37.44,10,71.29v796.77c0,33.85,27.44,61.29,61.29,61.29h122.58
		C227.72,929.35,255.16,901.91,255.16,868.06z"/>
	<path class="st0" d="M1848.71,1082.58h-398.39c-33.85,0-61.29,27.44-61.29,61.29s27.44,61.29,61.29,61.29h337.1v582.26h-582.26
		v-582.26h30.65c33.85,0,61.29-27.44,61.29-61.29s-27.44-61.29-61.29-61.29L1143.87,960c-33.85,0-61.29,150.02-61.29,183.87v704.84
		c0,33.85,27.44,61.29,61.29,61.29h704.84c33.85,0,61.29-27.44,61.29-61.29v-704.84C1910,1110.02,1882.56,1082.58,1848.71,1082.58z"
		/>
	<path class="st0" d="M898.71,1051.94h-612.9c-33.85,0-61.29,27.44-61.29,61.29v612.9c0,33.85,27.44,61.29,61.29,61.29h612.9
		c33.85,0,61.29-27.44,61.29-61.29v-61.29c0-33.85-27.44-61.29-61.29-61.29c-33.85,0-61.29,27.44-61.29,61.29H347.1v-490.32h490.32
		v275.81c0,33.85,27.44,61.29,61.29,61.29c33.85,0,61.29-27.44,61.29-61.29v-337.1C960,1079.38,932.56,1051.94,898.71,1051.94z"/>
	<path class="st0" d="M1143.87,837.42h643.55c33.85,0,61.29-27.44,61.29-61.29V132.58c0-33.85-27.44-61.29-61.29-61.29h-643.55
		c-33.85,0-61.29,27.44-61.29,61.29v61.29c0,33.85,27.44,61.29,61.29,61.29s61.29-27.44,61.29-61.29h520.97v520.97h-520.97V408.39
		c0-33.85-27.44-61.29-61.29-61.29s-61.29,27.44-61.29,61.29v367.74C1082.58,809.98,1110.02,837.42,1143.87,837.42z"/>
</g>
</svg>
