<?xml version="1.0" encoding="utf-8"?>
<!-- Generator: Adobe Illustrator 24.3.0, SVG Export Plug-In . SVG Version: 6.00 Build 0)  -->
<svg version="1.1" id="Layer_1" xmlns="http://www.w3.org/2000/svg" xmlns:xlink="http://www.w3.org/1999/xlink" x="0px" y="0px"
	 viewBox="0 0 250 250" style="enable-background:new 0 0 250 250;" xml:space="preserve">
<style type="text/css">
	.st0{fill:#FFFFFF;}
</style>
<g>
	<g id="Icon-Eye" transform="translate(278.000000, 484.000000)">
		<path id="Fill-174" class="st0" d="M-153-281.44c-81.17,0-117.75-71.65-119.25-74.66c-1-2-1-4.01,0-6.01
			c1.5-3.01,38.08-74.66,119.25-74.66s117.75,71.65,119.25,74.66c1,2,1,4.01,0,6.01C-35.25-352.59-71.83-281.44-153-281.44
			L-153-281.44z M-258.72-358.6c7.52,13.03,42.09,64.13,105.72,64.13s98.2-51.11,105.72-64.13c-7.52-13.03-42.09-64.13-105.72-64.13
			S-251.2-371.63-258.72-358.6L-258.72-358.6z"/>
		<path id="Fill-175" class="st0" d="M-153-295.47c-35.07,0-63.13-28.56-63.13-63.13s28.56-63.13,63.13-63.13
			s63.13,28.56,63.13,63.13S-117.93-295.47-153-295.47L-153-295.47z M-153-408.7c-27.56,0-50.1,22.55-50.1,50.1
			s22.55,50.1,50.1,50.1s50.1-22.55,50.1-50.1S-125.44-408.7-153-408.7L-153-408.7z"/>
		<path id="Fill-176" class="st0" d="M-153-323.53c-19.04,0-35.07-15.53-35.07-35.07c0-3.51,3.01-6.51,6.51-6.51
			c3.51,0,6.51,3.01,6.51,6.51c0,12.03,9.52,21.54,21.54,21.54s21.54-9.52,21.54-21.54s-9.52-21.54-21.54-21.54
			c-3.51,0-6.51-3.01-6.51-6.51c0-3.51,3.01-6.51,6.51-6.51c19.04,0,35.07,15.53,35.07,35.07
			C-118.43-338.56-133.96-323.53-153-323.53"/>
	</g>
</g>
</svg>
