<?xml version="1.0" encoding="utf-8"?>
<!-- Generator: Adobe Illustrator 24.3.0, SVG Export Plug-In . SVG Version: 6.00 Build 0)  -->
<svg version="1.1" id="Layer_1" xmlns="http://www.w3.org/2000/svg" xmlns:xlink="http://www.w3.org/1999/xlink" x="0px" y="0px"
	 viewBox="0 0 1920 1920" style="enable-background:new 0 0 1920 1920;" xml:space="preserve">
<style type="text/css">
	.st0{fill:#FFFFFF;}
</style>
<g>
	<path class="st0" d="M1910,957.43c1.29,501.21-391.12,951.77-947.65,952.47c-552.58,0.69-949.19-441.04-952.33-945.98
		C7.01,480.35,385.9,11.55,959.26,10.1C1523.9,8.68,1910.67,469.84,1910,957.43z M681.23,1186.57c186.7,0,370.85,0,557.02,0
		c25.11-150.44,25.4-299.84,0.62-449.88c-187.17,0-372.01,0-558.32,0C655.89,886.7,656.21,1035.45,681.23,1186.57z M132.68,736.48
		c-1.17,3.55-2.25,6.31-3,9.15C92.72,886.81,93,1028.1,127.24,1169.8c3.85,15.91,11.72,18.11,25.73,18.07
		c139.1-0.41,278.19-0.22,417.29-0.31c5.75,0,11.5-1.01,18.56-1.68c-23.36-150.56-23.35-299.57-1.4-449.4
		C434,736.48,283.64,736.48,132.68,736.48z M1331.81,1185.05c4.76,1.42,6.21,2.22,7.65,2.23c144.37,0.15,288.75,0.07,433.12,0.62
		c13.39,0.05,16.12-6.28,18.91-17.25c35.13-138.25,34.38-276.42,1.76-415.03c-4.18-17.77-12.58-20.51-28.45-20.45
		c-136.69,0.51-273.39,0.27-410.09,0.31c-6.78,0-13.57,0.58-22.98,1.01C1354.18,886.63,1354.5,1035.68,1331.81,1185.05z
		 M607.63,1280.96c-147.93,0-294.46,0-443.83,0c59.18,146.61,151.17,266.33,274.71,361.31c121.46,93.38,258.79,149.51,416.91,169.7
		C733.44,1649.48,652.73,1473.68,607.63,1280.96z M1313.1,1280.61c-45.67,193.81-127.91,368.86-248.63,531.8
		c162.95-21.57,303.96-80.58,428-178.92c118.24-93.74,205.75-210.96,263.53-352.89C1607.01,1280.61,1461.22,1280.61,1313.1,1280.61z
		 M852.38,110.95c-330.62,38-595.81,276.6-686.67,531.43c146.14,0,292.01,0,439.79,0C650.37,449.44,732.42,273.35,852.38,110.95z
		 M1756.84,643.16c-62.27-153.05-158.02-276.32-287.85-372.59c-118.26-87.69-250.74-141.13-398.89-160.17
		c1.54,4.79,1.65,6.42,2.48,7.53C1186.7,271.61,1265.05,442,1309.39,628c4.01,16.8,13.58,15.18,25.09,15.18
		c126.75-0.05,253.49-0.03,380.24-0.02C1727.62,643.16,1740.52,643.16,1756.84,643.16z M1218.55,642.2
		c-46.91-192.88-133.93-363.83-259.01-519.52c-124.61,156.3-212.08,326.8-258.58,519.52C874.78,642.2,1045.82,642.2,1218.55,642.2z
		 M701.87,1280.71c47.1,191.85,134.36,361.02,258.11,515.95c123.62-155.51,211.02-324.72,257.73-515.95
		C1045.71,1280.71,875.36,1280.71,701.87,1280.71z"/>
</g>
</svg>
