<?xml version="1.0" encoding="utf-8"?>
<!-- Generator: Adobe Illustrator 24.3.0, SVG Export Plug-In . SVG Version: 6.00 Build 0)  -->
<svg version="1.1" id="Layer_1" xmlns="http://www.w3.org/2000/svg" xmlns:xlink="http://www.w3.org/1999/xlink" x="0px" y="0px"
	 viewBox="0 0 1920 1920" style="enable-background:new 0 0 1920 1920;" xml:space="preserve">
<style type="text/css">
	.st0{fill:#FFFFFF;}
</style>
<g>
	<path class="st0" d="M1502.64,629.32c9.37-5.66,15.94-9.3,22.17-13.45c89.93-59.92,179.98-119.67,269.61-180.05
		c25.22-16.99,50.8-25.05,79.23-9.74c28.21,15.19,36.4,40.49,36.35,71.12c-0.38,219.08-0.36,438.17-0.01,657.25
		c0.05,28.35-8.41,51.67-33.07,66.71c-26.57,16.2-52.35,11.77-77.45-5.03c-90.39-60.51-180.98-120.72-271.5-181.04
		c-7-4.66-14.05-9.24-25.31-16.65c0,10.49,0.14,17.68-0.02,24.86c-1.13,51.5,2.1,103.58-4.44,154.39
		c-12.02,93.38-93.36,166.97-187.52,168.2c-185.15,2.41-370.35,1.22-555.53,0.77c-37.94-0.09-67.02-31.83-66.32-68.63
		c0.73-37.85,30.36-66.16,70.89-66.22c173.87-0.24,347.75-0.11,521.62-0.11c62.48,0,86.03-23.36,86.03-85.37
		c0-216.96,0-433.93-0.02-650.89c-0.01-51.82-26.47-78.38-78.07-78.39c-308.17-0.02-616.34-0.03-924.5-0.01
		c-59.59,0-83.58,23.94-83.6,83.37c-0.03,106.72-0.01,213.43,0.02,320.15c0.01,28.7-11.99,50.65-37.61,63.87
		c-24.22,12.49-47.98,9.8-69.89-6.06c-18.38-13.31-27.69-31.87-27.7-54.52c-0.09-115.19-1.35-230.41,0.51-345.58
		c1.78-110.2,92.89-196.1,206.11-196.35c218.4-0.47,436.81-0.15,655.21-0.15c94.01,0,188.01-0.09,282.02,0.04
		c125.82,0.18,212.57,87.34,212.79,213.65C1502.7,539.02,1502.64,582.57,1502.64,629.32z M1773.15,1035.12
		c0-142.05,0-280.65,0-419.04c-2.04-0.27-2.91-0.68-3.33-0.41c-86.38,57.33-173.33,113.84-258.18,173.35
		c-9.23,6.47-6.23,30.3-9.02,46.06c-2.69,15.17,4.07,23.92,16.84,32.3c78.45,51.45,156.25,103.89,234.3,155.94
		C1759.44,1027.09,1765.42,1030.43,1773.15,1035.12z"/>
	<path class="st0" d="M93.61,1028.37c268.19,5.48,498.4,218.83,523.35,485.1c1.51,16.15,2.94,32.37,3.26,48.57
		c0.86,44.5-27.27,76.16-67.1,76.27c-39.17,0.12-66.91-30.07-68.04-73.62c-3.08-118.37-48.06-218.08-135.88-297.34
		c-75.89-68.5-166.01-102.16-268.27-104.02c-55.29-1.01-87.93-54.93-61.74-100.96C33.25,1037.65,55.29,1027.58,93.61,1028.37z"/>
	<path class="st0" d="M85.35,1299.68c141.47,2.25,261.31,122.08,263.58,263.55c0.69,42.89-27.13,74.35-66.35,75.07
		c-38.26,0.7-67.05-28.81-68.91-70.62c-3.31-74.55-58.05-129.23-132.94-132.81c-42.06-2.01-71.18-30.51-70.49-69.01
		C10.93,1326.64,42.3,1299,85.35,1299.68z"/>
</g>
</svg>
