<?xml version="1.0" encoding="utf-8"?>
<!-- Generator: Adobe Illustrator 24.3.0, SVG Export Plug-In . SVG Version: 6.00 Build 0)  -->
<svg version="1.1" id="Layer_1" xmlns="http://www.w3.org/2000/svg" xmlns:xlink="http://www.w3.org/1999/xlink" x="0px" y="0px"
	 viewBox="0 0 1920 1965.57" style="enable-background:new 0 0 1920 1965.57;" xml:space="preserve">
<style type="text/css">
	.st0{fill:#FFFFFF;}
</style>
<g>
	<path class="st0" d="M1846.54,603.51c-592.05,0-1181.42,0-1773.1,0c0,20.26,0.01,39.83,0,59.4c-0.01,32.32,0.42,64.65-0.23,96.96
		c-0.4,19.87-14.39,33.2-32.25,32.72c-17.14-0.46-29.46-13.4-30.76-32.34c-0.14-1.97-0.08-3.96-0.08-5.93
		c0-155.67-0.24-311.34,0.14-467.01c0.14-55.33,41.15-95.75,96.73-96.13c61.87-0.42,123.75-0.1,188.09-0.1
		c0-20.95-0.15-40.49,0.03-60.04c0.52-55.86,41.38-98.18,94.75-98.26c53.47-0.09,94.49,42.02,95.16,97.88
		c0.23,19.1,0.04,38.2,0.04,58.86c62.91,0,125.12,0,189.97,0c0-19.16-0.13-38.68,0.02-58.2c0.44-55.83,41.31-98.4,94.5-98.55
		c53.57-0.15,94.74,41.89,95.41,97.63c0.23,19.61,0.04,39.22,0.04,59.73c63.69,0,125.43,0,189.96,0c0-18.87-0.08-37.7,0.01-56.53
		c0.29-57.71,40.26-100.42,94.25-100.82c54.92-0.41,95.41,42.41,95.72,101.31c0.09,18.31,0.01,36.63,0.01,55.95
		c63.49,0,125.22,0,189.98,0c0-18.52-0.09-37.34,0.02-56.16c0.34-58.72,41-101.53,95.93-101.09c54.1,0.44,93.7,42.95,94.01,101.02
		c0.1,18.34,0.02,36.67,0.02,57.26c31.69,0,61.8,0,91.91,0c29.68,0,59.36-0.04,89.03,0.02c65.7,0.15,104,38.68,104.02,104.92
		c0.06,212.39,0.02,424.78,0.02,637.18c0,209.76,0,419.51-0.01,629.27c0,7.91,0.43,15.88-0.33,23.73
		c-1.7,17.56-14.69,29.66-31.17,29.78c-16.46,0.12-29.87-11.94-31.49-29.37c-0.91-9.82-0.37-19.77-0.37-29.66
		c0-308.7,0.01-617.4,0.01-926.1C1846.54,622.33,1846.54,613.85,1846.54,603.51z M73.53,537.96c592.38,0,1182.18,0,1773.01,0
		c0-73.94,0-146.43,0-218.92c0-62.63-1.92-64.58-64.01-64.62c-51.91-0.04-103.82-0.01-157.63-0.01c0,20.23,0.08,38.53-0.01,56.83
		c-0.29,58.9-40.68,101.74-95.57,101.44c-53.98-0.29-94.04-42.96-94.39-100.66c-0.12-18.84-0.02-37.69-0.02-56.01
		c-64.91,0-127.12,0-189.96,0c0,20.72,0.17,39.83-0.03,58.94c-0.6,55.58-42.01,97.97-95.32,97.73
		c-53.33-0.24-94.07-42.58-94.59-98.46c-0.18-19.52-0.03-39.05-0.03-58.31c-64.78,0-126.98,0-189.96,0c0,20.6,0.18,39.69-0.03,58.78
		c-0.64,55.76-41.71,98.01-95.09,98c-53.24-0.01-94.3-42.47-94.84-98.22c-0.19-19.55-0.03-39.11-0.03-58.65
		c-64.6,0-126.8,0-189.99,0c0,20.48,0.18,39.55-0.03,58.62c-0.62,55.91-41.47,98.16-94.82,98.23c-53.33,0.08-94.54-42.3-95.08-97.96
		c-0.19-19.57-0.03-39.15-0.03-60.14c-65.42,0-128.59-0.55-191.73,0.35c-18.24,0.26-29.48,12.58-29.59,30.9
		C73.24,369.49,73.53,453.16,73.53,537.96z M421.69,223.45c0-30.34,0.25-60.68-0.08-91.02c-0.24-22.03-12.32-35.79-30.82-36.23
		c-19.23-0.46-32.21,13.8-32.3,36.73c-0.24,60.02-0.24,120.04,0.01,180.06c0.09,21.89,12.4,35.79,30.82,36.24
		c19.16,0.47,32.1-13.87,32.33-36.75C421.93,282.82,421.71,253.13,421.69,223.45z M801.66,223.41c0-30.34,0.24-60.68-0.08-91.01
		c-0.23-22.02-12.31-35.74-30.89-36.15c-19.26-0.42-32.15,13.74-32.24,36.75c-0.26,60.02-0.26,120.04-0.01,180.05
		c0.09,21.89,12.4,35.73,30.87,36.19c19.1,0.47,32.04-13.94,32.26-36.8C801.86,282.77,801.64,253.09,801.66,223.41z M1118.31,222.72
		c0,29.68-0.17,59.36,0.06,89.04c0.18,23.24,12.42,37.47,31.58,37.45c19.16-0.02,31.5-14.18,31.59-37.48
		c0.23-59.36,0.22-118.72,0.02-178.07c-0.08-23.26-12.44-37.43-31.63-37.44c-19.17-0.01-31.35,14.17-31.54,37.47
		C1118.15,163.36,1118.33,193.04,1118.31,222.72z M1561.57,224.72c0-30.34,0.19-60.68-0.06-91.02
		c-0.19-23.27-12.44-37.48-31.59-37.49c-19.2-0.01-31.52,14.16-31.59,37.43c-0.19,59.36-0.19,118.72,0.03,178.08
		c0.08,23.31,12.38,37.51,31.51,37.53c19.08,0.02,31.45-14.31,31.65-37.47C1561.76,282.76,1561.57,253.74,1561.57,224.72z"/>
	<path class="st0" d="M1391.99,951.09c24.11,0,47.15-0.13,70.18,0.03c56.37,0.37,98.81,40.47,99.35,93.71
		c0.55,54.3-41.78,95.55-98.84,96.28c-5.9,0.08-11.8,0.01-24.75,0.01c9.33,11.77,14.19,21.5,21.99,27.15
		c45.45,32.88,69.28,76.88,69.87,132.85c0.59,56.73,0.16,113.47,0.14,170.21c-0.02,69.96-25.64,101.38-95.01,114.98
		c0,20.01,0.31,40.37-0.06,60.72c-0.98,54.42-41.1,94.7-95.38,95.69c-21.76,0.4-43.55,0.54-65.3-0.1
		c-50.86-1.49-91-41.72-92.39-92.54c-0.58-21-0.1-42.02-0.1-64.32c-148.02,0-294.66,0-443.35,0c0,20.06,0.2,39.67-0.04,59.27
		c-0.7,56.88-40.66,97.01-97.36,97.71c-21.1,0.26-42.23,0.51-63.32-0.12c-50.9-1.52-91.02-41.69-92.43-92.52
		c-0.58-21.04-0.1-42.1-0.1-63.96c-8.42-1.77-16-3.05-23.42-4.97c-41.45-10.71-70.87-46.28-71.34-88.94
		c-0.74-66.62-1.57-133.3,0.32-199.88c1.48-51.95,26.4-92.71,68.51-123.39c8.04-5.86,13.44-15.33,22.27-25.73
		c-20.64-2.09-35.88-2-50.31-5.39c-46.86-11-77.23-54.53-72.31-101.71c4.88-46.75,44.32-83.53,91.89-84.84
		c25.02-0.69,50.07-0.12,77.12-0.12c12.09-44.53,24.24-88.73,36.07-133.03c17.94-67.17,45.74-88.69,115.49-88.7
		c189.98-0.04,379.95-0.05,569.93-0.02c57.16,0.01,89.33,24.55,104.49,79.94C1366.62,856.26,1379.12,903.27,1391.99,951.09z
		 M1375.76,1140.19c-1.02-5.24-1.54-9.1-2.52-12.83c-26.51-100.57-53.01-201.14-79.64-301.68c-7.36-27.79-14.42-33.19-42.72-33.19
		c-193.83-0.04-387.66-0.05-581.49-0.02c-26.98,0-35.07,6.15-41.93,31.87c-14.77,55.33-29.37,110.71-44.12,166.05
		c-13.19,49.5-26.48,98.98-40.09,149.81C821.35,1140.19,1097.38,1140.19,1375.76,1140.19z M959,1521.1
		c155.64,0,311.28,0.04,466.93-0.03c29.72-0.01,40.56-10.85,40.62-40.5c0.11-58.7,0.22-117.41-0.04-176.11
		c-0.27-60.32-40.24-99.96-100.95-99.98c-270.39-0.1-540.79-0.1-811.18,0c-61.47,0.02-100.82,39.94-100.96,101.99
		c-0.13,56.73-0.06,113.45-0.02,170.18c0.03,34.93,9.56,44.45,44.62,44.45C651.68,1521.12,805.34,1521.11,959,1521.1z
		 M548.48,1585.14c0,22.39-0.66,42.72,0.19,62.98c0.78,18.62,12.78,30.38,31.58,31.07c21,0.77,42.06,0.69,63.07,0.01
		c17.32-0.56,29.44-10.29,30.86-27.37c1.83-21.92,0.44-44.11,0.44-66.68C631.9,1585.14,591.38,1585.14,548.48,1585.14z
		 M1245.11,1584.54c0,22.86-0.76,43.77,0.23,64.59c0.86,18.24,13.4,29.53,32.49,30.12c20.35,0.63,40.74,0.52,61.1,0.01
		c18.27-0.46,30.55-10.32,32-28.41c1.7-21.37,0.4-42.98,0.4-64.54c-3.34-0.85-5.14-1.71-6.95-1.71
		C1325.63,1584.52,1286.88,1584.54,1245.11,1584.54z M510.88,1014.43c-17.45,0-32.46-0.01-47.47,0.01
		c-3.94,0.01-8.86-1.39-11.63,0.44c-9.79,6.45-23.1,12.3-26.89,21.68c-3.4,8.41,1.96,22.32,7.21,31.71
		c5.04,9.01,50.9,14.03,59.88,8.57c1.98-1.2,3.73-3.8,4.34-6.08C501.19,1052.64,505.75,1034.44,510.88,1014.43z M1410.05,1014.67
		c1.03,6.1,1.48,10.66,2.6,15.05c3.4,13.33,6.47,26.8,11,39.75c1.25,3.58,6.94,7.56,10.88,7.88c11.72,0.97,23.74,1.37,35.36-0.15
		c17.02-2.23,26.99-12.97,28.06-30.33c1.01-16.26-11.37-30.87-28.41-31.93C1450.06,1013.74,1430.46,1014.67,1410.05,1014.67z"/>
	<path class="st0" d="M960.04,1932.8c-280.32,0.01-560.64,0.01-840.96,0.01c-71.71,0-108.95-36.79-108.95-107.97
		c-0.04-308.07-0.02-616.15,0.01-924.22c0-5.93-0.55-12.04,0.63-17.76c3.31-16.09,13.48-25.45,30.01-26.52
		c15.55-1.01,29.46,10.51,32,26.5c1.12,7.1,0.65,14.47,0.65,21.72c0.03,306.09,0.04,612.19,0.04,918.28
		c0,37.78,8.69,46.58,46.43,46.58c560.64,0.02,1121.28,0.02,1681.93,0.01c35.12,0,44.68-9.51,44.72-44.38
		c0.04-35.62-0.14-71.25,0.03-106.87c0.12-24.43,12.71-39.16,32.45-38.62c19.02,0.52,30.7,14.7,30.82,38.29
		c0.2,38.26,0.2,76.52-0.01,114.79c-0.33,60.38-40.14,100.05-100.91,100.08C1525.96,1932.85,1243,1932.79,960.04,1932.8z"/>
	<path class="st0" d="M706.61,1363.18c-0.22,52.59-43.64,95.19-96.35,94.53c-51.64-0.64-93.7-43.56-93.5-95.4
		c0.2-52.55,43.63-95.15,96.35-94.51C664.84,1268.44,706.83,1311.28,706.61,1363.18z M643.19,1361.99
		c-0.44-17.13-15.19-31.18-32.28-30.74c-17.22,0.44-31.14,15.07-30.71,32.26c0.43,17.13,15.18,31.2,32.25,30.77
		C629.57,1393.84,643.63,1379.07,643.19,1361.99z"/>
	<path class="st0" d="M1213.35,1361.05c0.75-51.66,43.72-93.56,95.63-93.24c52.57,0.32,95.08,43.91,94.23,96.63
		c-0.84,52.46-44.88,94.53-97.62,93.26C1254.05,1456.47,1212.59,1413.02,1213.35,1361.05z M1339.76,1363.22
		c0.23-17.17-13.89-31.71-31.05-31.96c-17.19-0.26-31.66,13.8-31.94,31.03c-0.27,17.14,13.84,31.69,31.03,31.99
		C1324.86,1394.57,1339.53,1380.32,1339.76,1363.22z"/>
	<path class="st0" d="M961.83,1267.77c39.57,0,79.15-0.16,118.72,0.06c23.31,0.13,37.49,12.3,37.58,31.46
		c0.08,19.15-14.17,31.68-37.35,31.73c-80.47,0.18-160.93,0.18-241.4,0c-23.48-0.05-37.47-12.18-37.55-31.49
		c-0.08-19.3,13.98-31.56,37.32-31.7C880.04,1267.6,920.94,1267.77,961.83,1267.77z"/>
	<path class="st0" d="M960.19,1394.44c39.57,0,79.15-0.12,118.72,0.04c24.83,0.1,39.38,12.12,39.21,31.84
		c-0.17,19.68-14.63,31.38-39.68,31.42c-79.15,0.12-158.3,0.11-237.45,0c-24.8-0.03-39.31-12.09-39.17-31.91
		c0.14-19.77,14.5-31.28,39.64-31.36C881.04,1394.34,920.62,1394.44,960.19,1394.44z"/>
</g>
</svg>
