<?xml version="1.0" encoding="utf-8"?>
<!-- Generator: Adobe Illustrator 24.3.0, SVG Export Plug-In . SVG Version: 6.00 Build 0)  -->
<svg version="1.1" id="Layer_1" xmlns="http://www.w3.org/2000/svg" xmlns:xlink="http://www.w3.org/1999/xlink" x="0px" y="0px"
	 viewBox="0 0 1920 1920" style="enable-background:new 0 0 1920 1920;" xml:space="preserve">
<style type="text/css">
	.st0{fill:#FFFFFF;}
</style>
<g>
	<path class="st0" d="M1029.49,1444.87c0,36.1,1.61,67.9-1.12,99.33c-0.69,7.9-14.16,18.54-23.66,21.25
		c-102.61,29.25-206.07,55.63-308.25,86.28c-36.73,11.02-69.23,10.84-106.09,0.02c-174.29-51.2-349.42-99.56-524.24-148.93
		c-44.47-12.56-54.46-23.79-54.85-68.15c-0.86-100.24-0.89-200.48-0.95-300.72c-0.12-180.24,0.01-360.48-0.02-540.73
		c-0.03-164.82-0.7-329.64,0.07-494.46c0.32-68.53,28.1-88.14,93.85-69.65c169.36,47.64,338.56,95.87,508.24,142.33
		c19.15,5.24,42.24,5.16,61.38-0.12c164.92-45.53,329.04-93.99,494.23-138.49c28.92-7.79,63.5-7.83,92.45-0.12
		c176.51,47.01,352.13,97.37,528.09,146.45c50.02,13.95,58.56,24.79,58.58,77.03c0.04,186.08,0.05,372.15,0.04,558.23
		c0,37.79-0.07,37.79-39.07,37.36c-69.87-0.78-69.8-0.78-69.78-71c0.05-155.22-0.48-310.45,0.53-465.67
		c0.16-24.23-6.48-35.03-31.07-41.65c-139.22-37.48-277.87-77.04-416.73-115.85c-5.34-1.49-10.81-2.52-21.57-4.99
		c0,355.76,0,708.62,0,1063.14c-38.32,0-71.64,0-109.44,0c0-353.3,0-706.35,0-1064.02c-41.18,11.05-77.15,20.5-113,30.35
		c-104.75,28.79-209.37,58.11-314.28,86.32c-19.14,5.15-27.97,12.08-27.92,34.49c0.82,402.04,0.6,804.08,0.67,1206.12
		c0,7.52,0.78,15.04,1.46,27.43C814.27,1505.97,919.07,1476.22,1029.49,1444.87z M123.23,151.74c-0.9,12.94-1.88,20.51-1.89,28.09
		c-0.06,400.1,0.11,800.21-0.41,1200.31c-0.03,20.18,6.57,28.01,26.08,33.24c131.88,35.33,263.36,72.16,395,108.35
		c11.53,3.17,23.36,5.21,37.12,8.24c0.77-12.42,1.75-20.91,1.75-29.41c0.1-398.18-0.11-796.35,0.7-1194.53
		c0.05-23.53-9.6-31.53-29.76-36.9c-92.88-24.74-185.51-50.41-278.21-75.83C224.7,179.88,175.82,166.28,123.23,151.74z"/>
	<path class="st0" d="M1164.23,1897.48c-14.2-10.73-35.52-26.84-56.86-42.97c30.85-52.37,21.12-108.33,22.52-162.06
		c0.88-33.66,9.8-60.69,29.72-87.54c167.17-225.27,333.36-451.26,499.86-677.02c29.84-40.47,50.42-43.48,91.58-13.11
		c42.66,31.48,85.19,63.14,127.65,94.9c38.22,28.59,40.64,46.99,11.59,86.48c-126.2,171.62-252.42,343.22-378.64,514.83
		c-43.41,59.02-85.83,118.8-130.88,176.53c-12.22,15.66-31.03,28.03-49.28,36.7c-25.03,11.88-53.09,17.23-78.61,28.26
		C1225.04,1864.52,1198.62,1879.83,1164.23,1897.48z M1582.48,1183.83c-9.29,11.89-15.91,20-22.15,28.4
		c-105.07,141.33-208.6,283.84-316.05,423.34c-31.94,41.47-25,83.11-23.62,132.46c45.08-16.24,87.31-20.56,117.72-63.17
		c102.28-143.33,209-283.49,313.97-424.91c6.66-8.97,12.79-18.32,20.54-29.45C1641.82,1227.6,1613.41,1206.65,1582.48,1183.83z
		 M1807.75,1070.51c-31.68-23.27-60.72-44.6-91.98-67.58c-27.69,37.54-53.66,72.74-81.3,110.22c31.5,23.16,60.47,44.47,92.01,67.66
		C1754.4,1142.93,1780.28,1107.79,1807.75,1070.51z"/>
</g>
</svg>
