<?xml version="1.0" encoding="utf-8"?>
<!-- Generator: Adobe Illustrator 24.3.0, SVG Export Plug-In . SVG Version: 6.00 Build 0)  -->
<svg version="1.1" id="Layer_1" xmlns="http://www.w3.org/2000/svg" xmlns:xlink="http://www.w3.org/1999/xlink" x="0px" y="0px"
	 viewBox="0 0 250 250" style="enable-background:new 0 0 250 250;" xml:space="preserve">
<style type="text/css">
	.st0{fill:#FFFFFF;}
</style>
<path class="st0" d="M57.5,140h135c28.95,0,52.5-23.55,52.5-52.5S221.45,35,192.5,35H65C65,18.42,51.58,5,35,5S5,18.42,5,35
	s13.42,30,30,30c11.07,0,20.64-6.08,25.85-15H192.5c20.67,0,37.5,16.83,37.5,37.5S213.17,125,192.5,125h-135
	C28.55,125,5,148.55,5,177.5S28.55,230,57.5,230h131.65c5.19,8.93,14.76,15,25.85,15c16.57,0,30-13.43,30-30s-13.43-30-30-30
	s-30,13.43-30,30H57.5C36.83,215,20,198.17,20,177.5S36.83,140,57.5,140z"/>
</svg>
