<?xml version="1.0" encoding="utf-8"?>
<!-- Generator: Adobe Illustrator 24.3.0, SVG Export Plug-In . SVG Version: 6.00 Build 0)  -->
<svg version="1.1" id="Layer_1" xmlns="http://www.w3.org/2000/svg" xmlns:xlink="http://www.w3.org/1999/xlink" x="0px" y="0px"
	 viewBox="0 0 250 250" style="enable-background:new 0 0 250 250;" xml:space="preserve">
<style type="text/css">
	.st0{fill:#E4002B;}
	.st1{fill:#FFFFFF;}
</style>
<path class="st0" d="M216.98,96.99c0-50.81-41.19-91.99-92-91.99C74.89,5,34.22,45.07,33.09,94.89c-0.03-0.01-0.08-0.01-0.11-0.01
	c-0.02,0.45,0.05,0.9,0.04,1.36c0,0.25-0.04,0.51-0.04,0.76c0,0.92,0.11,1.8,0.14,2.7c1.04,59.78,68.6,122.85,91.86,145.31
	c65.32-52.95,84.33-102.08,89.83-128.27c0.2-0.92,0.38-1.83,0.54-2.75c0.53-2.82,0.9-5.35,1.15-7.52c0-0.03,0.01-0.05,0.01-0.08
	C217.2,100.33,216.98,96.99,216.98,96.99z"/>
<circle class="st1" cx="125" cy="94.01" r="76.74"/>
<path class="st0" d="M178.77,65.2c-0.96-0.48-1.92-0.48-2.4,0l-16.8,12.96V72.4c0-7.68-6.24-13.92-13.92-13.92H83.71
	c-7.68,0-13.92,6.24-13.92,13.92v43.21c0,7.68,6.24,13.92,13.92,13.92h61.93c7.68,0,13.92-6.24,13.92-13.92v-5.76l16.8,12.96
	c0.48,0.48,1.44,0.48,2.4,0s1.44-0.96,1.44-1.92V67.12C180.21,66.16,179.73,65.68,178.77,65.2z"/>
</svg>
