<?xml version="1.0" encoding="utf-8"?>
<!-- Generator: Adobe Illustrator 24.3.0, SVG Export Plug-In . SVG Version: 6.00 Build 0)  -->
<svg version="1.1" id="Layer_1" xmlns="http://www.w3.org/2000/svg" xmlns:xlink="http://www.w3.org/1999/xlink" x="0px" y="0px"
	 viewBox="0 0 250 250" style="enable-background:new 0 0 250 250;" xml:space="preserve">
<style type="text/css">
	.st0{fill:#FFFFFF;}
</style>
<path class="st0" d="M238.39,206.59L156.8,125l81.59-81.59c8.81-8.81,8.81-22.99,0-31.8s-22.99-8.81-31.8,0L125,93.2L43.41,11.61
	c-8.81-8.81-22.99-8.81-31.8,0s-8.81,22.99,0,31.8L93.2,125l-81.59,81.59c-8.81,8.81-8.81,22.99,0,31.8s22.99,8.81,31.8,0L125,156.8
	l81.59,81.59c8.81,8.81,22.99,8.81,31.8,0C247.14,229.58,247.14,215.34,238.39,206.59z"/>
</svg>
