<?xml version="1.0" encoding="utf-8"?>
<!-- Generator: Adobe Illustrator 24.3.0, SVG Export Plug-In . SVG Version: 6.00 Build 0)  -->
<svg version="1.1" id="Layer_1" xmlns="http://www.w3.org/2000/svg" xmlns:xlink="http://www.w3.org/1999/xlink" x="0px" y="0px"
	 viewBox="0 0 1920 1920" style="enable-background:new 0 0 1920 1920;" xml:space="preserve">
<style type="text/css">
	.st0{fill:#FFFFFF;}
</style>
<g>
	<path class="st0" d="M10,1907.57c16.46-382.98,192.71-663.83,525.34-848.3C278.64,808.72,297,404.24,547.63,172.48
		c231.49-214.05,598.36-213.14,828.15,1.2c248.07,231.4,267.73,633.57,9.5,886.98c159.56,81.81,287.92,197.53,382.45,349.7
		c94.21,151.67,140.42,317.23,142.28,497.2C1277.47,1907.57,646.13,1907.57,10,1907.57z M1761.68,1772.58
		c-0.58-5.91-0.58-10.88-1.61-15.62c-59.97-277.95-219.78-475.47-477.91-594.26c-16.58-7.63-29.21-6.31-45.18,1.55
		c-184.45,90.78-369.28,90.08-553.47-0.74c-15.57-7.68-27.66-7.99-43.19-0.94c-238.66,108.38-394.44,288.07-466.03,540.31
		c-6.4,22.54-10.18,45.81-15.39,69.7C695.36,1772.58,1228.14,1772.58,1761.68,1772.58z M960.96,1095.79
		c261.59,0.05,474.22-212.31,474.46-473.85c0.24-261.74-211.71-474.44-473.29-474.96c-262.58-0.51-475.73,212.33-475.51,474.84
		C486.83,883.35,699.4,1095.74,960.96,1095.79z"/>
</g>
</svg>
