<?xml version="1.0" encoding="utf-8"?>
<!-- Generator: Adobe Illustrator 24.3.0, SVG Export Plug-In . SVG Version: 6.00 Build 0)  -->
<svg version="1.1" id="Layer_1" xmlns="http://www.w3.org/2000/svg" xmlns:xlink="http://www.w3.org/1999/xlink" x="0px" y="0px"
	 viewBox="0 0 250 250" style="enable-background:new 0 0 250 250;" xml:space="preserve">
<style type="text/css">
	.st0{fill:#FFFFFF;}
</style>
<path class="st0" d="M125,173c20.05,0,36-15.97,36-36s-15.95-36-36-36s-36,15.97-36,36S104.95,173,125,173z"/>
<path class="st0" d="M230.8,115.23c-2.83-13.82-8.35-26.95-16.26-38.63c-7.77-11.49-17.67-21.39-29.16-29.16
	c-11.68-7.9-24.81-13.43-38.63-16.26c-7.26-1.47-14.65-2.2-22.06-2.16V5L77,41l47.7,36V53.02c5.81-0.02,11.62,0.53,17.22,1.68
	c10.74,2.2,20.94,6.49,30.02,12.64c8.96,6.04,16.67,13.75,22.7,22.7c9.38,13.86,14.38,30.22,14.35,46.96
	c0,11.23-2.25,22.35-6.6,32.7c-2.12,4.99-4.71,9.76-7.73,14.26c-3.03,4.47-6.48,8.64-10.3,12.47
	c-11.62,11.59-26.36,19.55-42.43,22.88c-11.18,2.26-22.69,2.26-33.86,0c-10.75-2.2-20.95-6.5-30.04-12.65
	c-8.95-6.03-16.65-13.73-22.68-22.68C46,170.1,41,153.74,41,137H17c0.01,21.52,6.44,42.56,18.47,60.41
	c7.77,11.47,17.66,21.36,29.14,29.14c17.83,12.07,38.87,18.5,60.4,18.46c7.31,0,14.6-0.74,21.77-2.2
	c13.81-2.85,26.93-8.37,38.62-16.26c5.74-3.87,11.09-8.28,15.97-13.19c4.89-4.9,9.31-10.25,13.2-15.98
	c12.06-17.82,18.48-38.85,18.44-60.37C233,129.69,232.26,122.4,230.8,115.23z"/>
</svg>
