<?xml version="1.0" encoding="utf-8"?>
<!-- Generator: Adobe Illustrator 24.3.0, SVG Export Plug-In . SVG Version: 6.00 Build 0)  -->
<svg version="1.1" id="Layer_1" xmlns="http://www.w3.org/2000/svg" xmlns:xlink="http://www.w3.org/1999/xlink" x="0px" y="0px"
	 viewBox="0 0 1920 1920" style="enable-background:new 0 0 1920 1920;" xml:space="preserve">
<style type="text/css">
	.st0{fill:#FFFFFF;}
</style>
<g>
	<path class="st0" d="M1700.54,345.48c0-7.6,0-15.19,0-22.79c-0.01-76.69-0.02-153.38-0.01-230.07c0-6.45-0.27-12.94,0.36-19.34
		c3.37-34.05,28.77-57.08,61.61-56.14c32.47,0.92,57.08,25.79,57.34,60.23c0.57,77.4,0.2,154.81,0.23,232.22
		c0.02,58.05-1.88,116.19,0.65,174.14c2.29,52.5-30.72,75.94-76.31,75.41c-130.45-1.5-260.93-0.54-391.39-0.57
		c-5.73,0-11.5,0.2-17.19-0.33c-34.32-3.2-58.17-28.4-57.55-60.53c0.64-32.98,26.61-58.05,61.82-58.18
		c91.02-0.34,182.04-0.11,272.9-0.11c0.55-1.99,1.6-3.88,1.14-4.4c-105.81-116.93-227.11-211.17-378.23-263.69
		C746.42,1.23,222.77,311.01,138.86,821.08c-12.04,73.2-14.13,146.83-7.27,220.68c3.38,36.41-18.47,65.9-51.76,69.21
		c-35.86,3.56-63.8-19.88-66.52-57.18c-25.79-354.12,98.95-643.14,380-860.61C537.8,81.38,704.78,21.39,887.37,9.07
		c291.98-19.7,541.88,75.34,750.38,280.08c19.41,19.06,37.86,39.09,56.76,58.68C1696.52,347.04,1698.53,346.26,1700.54,345.48z"/>
	<path class="st0" d="M218.97,1574.66c0,7.71,0,15.41,0,23.12c0,79.55,0.21,159.11-0.1,238.66c-0.16,40.36-24.41,66.67-60.1,66.48
		c-35.91-0.19-59.21-26.3-59.25-67.08c-0.15-134.74-0.11-269.48-0.18-404.22c-0.02-46.59,22.89-70.03,69.68-70.11
		c107.52-0.2,215.05-0.06,322.57-0.04c29.39,0,58.81-0.86,88.16,0.27c46.2,1.79,74.58,44.28,56.11,83.8
		c-11.42,24.44-31.79,35.33-58.94,35.21c-82.43-0.34-164.87-0.12-247.31-0.12c-7.82,0-15.64,0-23.39,0
		c-0.31,2.31-1.14,4.21-0.56,4.84c109.93,121.36,236.84,217.09,394.73,268.87c454.97,149.21,943.44-116.88,1063.92-580.44
		c25.32-97.43,32.6-196.14,23.55-296.21c-3.27-36.2,19.12-65.74,52.42-68.67c35.9-3.15,63.02,20.37,66,57.86
		c24.71,311.43-73.58,577.57-299.7,793.14c-148.04,141.13-326.64,223.61-530.22,246.45c-310.09,34.8-576.08-60.33-798.09-279.1
		c-18.29-18.03-35.56-37.1-53.3-55.68C222.97,1572.68,220.97,1573.67,218.97,1574.66z"/>
</g>
</svg>
