<?xml version="1.0" encoding="utf-8"?>
<!-- Generator: Adobe Illustrator 24.3.0, SVG Export Plug-In . SVG Version: 6.00 Build 0)  -->
<svg version="1.1" id="Layer_1" xmlns="http://www.w3.org/2000/svg" xmlns:xlink="http://www.w3.org/1999/xlink" x="0px" y="0px"
	 viewBox="0 0 1920 1920" style="enable-background:new 0 0 1920 1920;" xml:space="preserve">
<style type="text/css">
	.st0{fill:#FFFFFF;}
</style>
<g id="search">
	<path class="st0" d="M1889.85,1790.89l-440.77-440.77h-4.75c290.69-342.74,248.48-856.24-94.26-1146.92S493.84-45.28,203.16,297.46
		s-248.48,856.24,94.26,1146.92c303.64,257.52,749.03,257.52,1052.66,0c0,0,0,3.39,0,4.75l440.77,440.77
		c26.37,26.59,69.31,26.77,95.9,0.39c0.13-0.13,0.26-0.26,0.39-0.39c28.04-24.83,30.64-67.68,5.82-95.72
		C1891.96,1793.05,1890.92,1791.95,1889.85,1790.89z M824.54,1499.98c-374.51,0-678.11-303.6-678.11-678.11
		s303.6-678.11,678.11-678.11s678.11,303.6,678.11,678.11S1199.05,1499.98,824.54,1499.98z"/>
</g>
</svg>
