<?xml version="1.0" encoding="utf-8"?>
<!-- Generator: Adobe Illustrator 24.3.0, SVG Export Plug-In . SVG Version: 6.00 Build 0)  -->
<svg version="1.1" id="Layer_1" xmlns="http://www.w3.org/2000/svg" xmlns:xlink="http://www.w3.org/1999/xlink" x="0px" y="0px"
	 viewBox="0 0 1920 1920" style="enable-background:new 0 0 1920 1920;" xml:space="preserve">
<style type="text/css">
	.st0{fill:#FFFFFF;}
</style>
<g>
	<path class="st0" d="M930.24,1849.31c0-20.31,0-39.24,0-59.57c19.83,0,38.78,0,59.81,0c0-41.23,0-81.1,0-122.09
		c62.38,0,122.68,0,184.44,0c0,40.12,0,79.51,0,120.25c20.8,0,40.18,0,61,0c0-80.44,0-160.74,0-242.6c61.69,0,121.99,0,184.4,0
		c0,80.27,0,161.03,0,242.88c20.98,0,39.92,0,60.97,0c0-131.46,0-263.35,0-396.56c62.38,0,122.68,0,184.38,0
		c0,131.7,0,263.14,0,396.12c20.71,0,40.11,0,61.61,0c0-223.57,0-447.51,0-672.55c61.92,0,121.76,0,183.16,0
		c0,243.97,0,488.37,0,734.13C1584.23,1849.31,1257.97,1849.31,930.24,1849.31z M1848.81,1788.38c0-204.99,0-408.4,0-611.33
		c-20.74,0-40.14,0-59.06,0c0,204.53,0,407.48,0,611.33C1809.66,1788.38,1828.58,1788.38,1848.81,1788.38z M1544.55,1452.55
		c0,112.99,0,224.35,0,335.15c20.77,0,40.16,0,59.02,0c0-112.49,0-223.4,0-335.15C1583.65,1452.55,1564.74,1452.55,1544.55,1452.55z
		 M1357.7,1788.39c0-61.72,0-121.94,0-181.71c-20.74,0-40.11,0-59.07,0c0,61.31,0,121.07,0,181.71
		C1318.5,1788.39,1337.41,1788.39,1357.7,1788.39z M1053.7,1728.3c0,19.9,0,39.67,0,59.67c19.97,0,39.29,0,58.33,0
		c0-20.67,0-40,0-59.67C1092.15,1728.3,1073.73,1728.3,1053.7,1728.3z"/>
	<path class="st0" d="M428.53,1832.84c-35.83-119.24-70.49-234.57-105.27-350.31c-104.89,0-208.33,0-313.26,0
		c0-20.21,0-39.6,0-60.28c118.87,0,238.05,0,359.24,0c25.59,85.03,51.45,170.94,78.49,260.78c20.03-33.39,38.78-63.58,56.3-94.47
		c6.15-10.84,13.15-14.55,25.64-14.43c70.87,0.66,141.75,0.32,214.07,0.32c0,20.18,0,39.57,0,61.4c-12.35,0-24.9,0-37.46,0
		c-47.92,0-95.85,0.33-143.76-0.25c-10.92-0.13-17.06,3.36-22.62,12.8c-32.72,55.54-66.11,110.69-99.33,165.95
		C437.37,1819.66,433.8,1824.76,428.53,1832.84z"/>
	<path class="st0" d="M960.07,1420.98c-372.33,0.03-675.96-303.95-675.29-676.07c0.67-371.82,303.37-674.09,675.18-674.22
		c372.32-0.14,675.96,303.83,675.3,676.04C1634.6,1118.5,1331.73,1420.95,960.07,1420.98z M1114.66,1144.77
		c99.33,0,201.57,0.06,303.81-0.22c3.87-0.01,8.98-2.17,11.4-5.08c33.15-39.79,61.49-82.67,83.63-130.89
		c-28.26-11.92-55.05-23.23-83.04-35.03c8.24-19.58,15.76-37.45,23.57-56.02c28.96,11.71,55.79,22.56,83.52,33.78
		c20.07-58.06,32.51-114.67,33.94-175.24c-51.36,0-100.34,0-149.86,0c0-20.88,0-40.26,0-61.69c50.64,0,100.1,0,150.29,0
		c-3.17-60.78-13.6-117.78-35-173.95c-28.58,11.73-54.96,22.55-82.99,34.05c-8.05-19.4-15.51-37.36-23.38-56.33
		c28.42-12.01,55.22-23.33,87.42-36.93c-34.07-50.76-66.58-99.19-100.61-149.91c-39.03,39.2-74.13,74.46-108.66,109.14
		c-14.95-14.43-29.07-28.06-44.57-43.01c35.73-35.15,71.19-70.03,110.58-108.78c-50.92-34.2-99.34-66.72-149.94-100.7
		c-13.66,32.32-24.98,59.12-36.93,87.4c-19.1-7.97-37.05-15.47-56.1-23.42c11.56-28.52,22.47-55.44,33.86-83.54
		c-57.57-20.27-114.36-32.2-175.51-34.15c0,51.35,0,100.83,0,150.3c-21.03,0-39.97,0-60.77,0c0-25.64,0-50.39,0-75.15
		c0-24.76,0-49.52,0-74.18c-50.76-1.28-140.78,17.04-174.05,35.38c10.89,26.71,21.85,53.6,33.3,81.7
		c-19.91,8-37.89,15.23-56.54,22.73c-11.99-28.51-23.07-54.88-34.85-82.89c-54.55,26.31-103.54,58.4-150.75,102.06
		c36.88,35.91,72.39,70.47,104.85,102.08c-13.1,15.04-25.88,29.72-41.61,47.78c-35.84-36.58-70.47-71.91-105.55-107.71
		c-39.35,44.29-72.37,92.2-97.48,146.54c28.48,12.1,55.21,23.46,82.98,35.25c-8.4,19.89-15.92,37.71-23.63,55.97
		c-28.87-11.76-55.32-22.53-83.25-33.91c-20.55,57.13-32.28,113.99-34.39,175.05c50.71,0,100.23,0,149.94,0c0,21.43,0,40.81,0,62.24
		c-50.7,0-100.12,0-154.85,0c11.81,59.62,23.02,116.2,34.82,175.78c32.57-13.27,59.51-24.25,87.98-35.85
		c7.94,19.3,15.32,37.27,23.15,56.29c-28.44,12.01-55.2,23.3-87.06,36.75c27.71,41.43,54.04,80.4,79.9,119.67
		c7.41,11.25,16.48,15.06,30.18,14.96c92.06-0.66,184.13-0.34,276.19-0.33c6.89,0,13.78,0,18.66,0
		c7.18-16.21,13.22-30.25,19.6-44.13c4.45-9.67,12.62-18.8,13.59-28.71c9.89-100.46,18.61-201.04,27.71-301.57
		c9.03-99.9,17.85-199.83,27.31-299.69c3.57-37.68,30.64-62.8,65.16-62.4c34.66,0.4,60.5,25.96,64.11,63.69
		c2.68,27.98,5.14,55.99,7.67,83.99c15.53,171.81,31.03,343.62,46.65,515.42c0.39,4.31,1.37,8.88,3.33,12.68
		C1092.58,1103.72,1103.13,1123.16,1114.66,1144.77z M558.01,1206.75c250.16,222.83,614.99,182.03,801.02,0
		C1092.87,1206.75,827.12,1206.75,558.01,1206.75z M962.89,472.97c-1.93,0.01-3.86,0.01-5.78,0.02
		c-16.87,185.47-33.74,370.94-50.3,552.95c36.71,0,71.05,0,106.45,0C996.61,843.08,979.75,658.02,962.89,472.97z M1043.94,1144.42
		c-12.04-39.39-51.59-64.66-92.57-60.66c-36.27,3.54-70.42,31.5-73.7,60.66C932.61,1144.42,987.5,1144.42,1043.94,1144.42z"/>
</g>
</svg>
