<?xml version="1.0" encoding="utf-8"?>
<!-- Generator: Adobe Illustrator 24.3.0, SVG Export Plug-In . SVG Version: 6.00 Build 0)  -->
<svg version="1.1" id="Layer_1" xmlns="http://www.w3.org/2000/svg" xmlns:xlink="http://www.w3.org/1999/xlink" x="0px" y="0px"
	 viewBox="0 0 1920 1280" style="enable-background:new 0 0 1920 1280;" xml:space="preserve">
<style type="text/css">
	.st0{fill:#FFFFFF;}
</style>
<g>
	<path class="st0" d="M1910,653.79c-10.03,26.57-22.65,50.87-52.74,59.7c-16.55,4.86-33.22,9.33-49.68,14.47
		c-11.13,3.47-21.99,7.78-35.23,12.53c10.58,16.58,19.97,32.32,30.37,47.37c17.81,25.74,26.63,54.12,26.69,85.26
		c0.08,40.2-0.11,80.4-0.04,120.6c0.05,31.65-10.28,59.06-31.21,83.04c-4.66,5.34-7.23,14.14-7.42,21.44
		c-0.81,30.28-0.04,60.6-0.42,90.9c-0.64,52.06-31.47,83.16-83.49,83.46c-73.59,0.42-147.19,0.19-220.79,0.09
		c-59.94-0.08-88.51-28.53-89.21-88.58c-0.1-8.58-0.01-17.15-0.01-27.1c25.53,0,49.29,0,74.88,0c0.95,11.99,1.91,23.97,3,37.64
		c6.6,0.47,12.51,1.25,18.42,1.25c66.79,0.09,133.59-0.5,200.37,0.45c16.91,0.24,21.65-5.41,20.43-21.3
		c-1.23-15.99-0.58-32.15-0.22-48.22c0.21-9.42-3.43-13.5-13.05-13.26c-15.45,0.39-30.92,0.07-46.38,0.07
		c-316.03,0.01-632.06,0.02-948.08,0.04c-24.74,0-25.15,0.06-24.65,25.45c0.36,18.26-4.55,42.41,5.01,52.97
		c8.36,9.23,33.62,3.68,51.41,3.77c53.8,0.26,107.63-0.67,161.41,0.51c18.11,0.4,24.85-5.23,22.63-22.93
		c-0.65-5.22,0.85-10.7,1.44-16.88c24.54,0,47.8,0,70.97,0c17.28,76.61-23.07,116.63-81.34,116.27
		c-74.21-0.45-148.43,0.09-222.64-0.18c-55.15-0.2-85.53-31.19-85.8-86.87c-0.15-29.69,0.4-59.38-0.36-89.05
		c-0.17-6.68-2.83-14.7-7.16-19.64c-20.96-23.88-31.55-51.22-31.48-82.93c0.09-40.2-0.06-80.4-0.08-120.6
		c-0.02-31.86,9.23-60.71,27.43-86.91c10.15-14.6,19.42-29.82,30.42-46.82c-25.82-8.24-48.89-17.13-72.71-22.87
		c-39.56-9.53-62.75-34.35-64.45-74.85c-1.17-27.78-1.25-55.7,0.05-83.46c2.11-45.13,32.87-74.56,77.76-75.02
		c51.94-0.53,103.9-0.57,155.84,0.17c10.5,0.15,20.95,4.72,33.74,7.81c13.84-27.56,29.71-56.81,43.46-87.01
		c35.16-77.2,98.96-114.71,179.34-116.81c147.07-3.83,294.37-3.78,441.44-0.06c80.36,2.03,144.4,39.05,179.73,116.24
		c13.83,30.21,29.61,59.53,43.02,86.29c17.34-2.53,32.05-6.22,46.83-6.54c40.18-0.86,80.39-0.29,120.59-0.28
		c65.14,0.02,77.17,7.86,101.94,66.45C1910,584.51,1910,619.15,1910,653.79z M1832.37,560.31c-46.19,0-89.92-0.33-133.63,0.5
		c-4.51,0.09-9.96,6.31-13.15,10.94c-19.26,28-38.26,56.18-56.79,84.67c-10.01,15.39-23.37,22.63-41.74,22.61
		c-259.69-0.15-519.38-0.16-779.07-0.03c-18.35,0.01-31.75-7.06-41.74-22.54c-18.1-28.03-37.23-55.4-55.23-83.5
		c-5.95-9.29-12.54-13.39-23.91-13.08c-29.66,0.81-59.35,0.28-89.03,0.28c-11.4,0-22.8,0-35.45,0c0,25-0.77,46.62,0.56,68.11
		c0.32,5.16,6.69,12.56,11.89,14.4c37.81,13.35,76.1,25.34,114.1,38.17c32.11,10.84,40.94,35.35,22.89,63.88
		c-17.84,28.19-37.57,55.27-54,84.24c-8.19,14.43-14.3,31.79-15.3,48.19c-2.26,36.96-1.11,74.16-0.68,111.25
		c0.39,33.99,15.29,48.41,48.92,48.42c337.6,0.03,675.2,0.03,1012.8,0.01c33.71,0,48.7-14.43,49.11-48.26
		c0.45-37.09,1.58-74.29-0.67-111.25c-1-16.41-7.09-33.77-15.27-48.21c-16.41-28.98-36.06-56.11-53.96-84.27
		c-18.12-28.52-9.44-53.02,22.69-63.91c37.98-12.87,76.28-24.82,114.1-38.17c5.22-1.84,11.67-9.2,11.99-14.35
		C1833.14,606.92,1832.37,585.29,1832.37,560.31z M1197.32,602.17c119.95,0,239.9,0.06,359.84-0.05
		c23.6-0.02,40.08-26.54,29.66-47.51c-18.4-37.06-38.85-73.22-55.06-111.21c-23.44-54.95-67.08-78.8-122.63-79.82
		c-125.46-2.29-250.99-1.53-376.49-1.79c-18.53-0.04-37.21-0.13-55.55,2.07c-49.27,5.9-89.35,25.29-111.01,74.25
		c-16.72,37.79-36.73,74.12-55.16,111.16c-14.17,28.48,0.67,52.85,32.11,52.85C961.13,602.14,1079.22,602.13,1197.32,602.17z"/>
	<path class="st0" d="M10,230.74c2.37-5.56,4.76-11.12,7.12-16.69c11.29-26.69,31.05-44.67,59.98-45.69
		c57.42-2.02,114.99-2.4,172.4-0.5c13.2,0.44,26.01,12.84,40.99,20.8c0,0,2.99-3.61,5.08-7.69c9.01-17.58,18.46-34.99,26.49-53.03
		C357.64,47.99,424.38,11.63,506.44,9.91c170.58-3.59,341.35-3.66,511.93,0.06c80.32,1.75,146.73,36.64,182.16,115.31
		c9.32,20.69,20.55,40.53,31.83,62.56c-24.13,10.83-46.47,20.86-69.69,31.28c-10.38-19.78-21.91-38.2-30.08-58
		c-22.28-53.94-67.59-74.24-119.82-74.92c-166.92-2.18-333.91-2.15-500.83-0.07c-53.97,0.67-99.11,22.66-122.12,77.65
		c-13.08,31.25-30.23,60.79-45.33,91.2c-10.25,20.65-4.47,30.21,18.78,30.24c123.67,0.16,247.33,0.06,371,0.11
		c26.39,0.01,26.42,0.13,26.49,26.25c0.03,11.13-0.68,22.3,0.05,33.38c0.88,13.26-5.13,16.89-17.54,16.87
		c-137.27-0.27-274.54-0.23-411.81-0.05c-18.49,0.02-31.43-7.82-41.31-23.24c-17.99-28.09-36.22-56.08-55.74-83.12
		c-4.5-6.23-14.5-11.65-22.16-11.91c-35.82-1.23-71.71-0.2-107.57-0.68c-12.38-0.17-17.93,3.46-17.3,16.86
		c0.95,20.32,0.25,40.71,0.25,62.22c34.97,11.76,69.29,23.31,103.61,34.85c7.6,2.56,15.25,4.99,22.82,7.65
		c33.16,11.65,41.19,35.28,21.96,65.14c-10.03,15.59-19.84,31.38-30.83,46.28c-27.13,36.78-38.71,78.09-38.23,123.35
		c0.25,22.88-0.18,45.76,0.04,68.63c0.37,38.54,14.3,52.84,52.62,53.01c66.78,0.3,133.56,0.08,200.34,0.08c7.23,0,14.47,0,22.79,0
		c0,26.08,0,49.96,0,76.5c-78.03,0-156.07,0-236.26,0c0,25.31-0.53,48.03,0.52,70.68c0.17,3.77,7.14,10.3,11.04,10.35
		c48.74,0.71,97.49,0.47,148.07,0.47c0-13.17,0-24.61,0-37.65c26.11,0,50.43,0,74.81,0c13.8,51.3-6.92,97.7-50.16,110.08
		c-11.08,3.17-23.16,3.86-34.79,3.97c-46.37,0.42-92.75,0.43-139.12,0.07c-58.44-0.46-87.19-29.87-87.28-88.6
		c-0.04-28.44,0.61-56.91-0.39-85.32c-0.27-7.75-3.64-16.77-8.57-22.74c-17.54-21.21-30.06-44.68-29.21-72.31
		c1.7-55.39,1.03-111.43,9.82-165.83c5.39-33.4,26.5-64.26,41.73-98.95c-16.42-5.43-35.55-14.31-55.62-17.85
		C46.45,396.55,20.32,375,10,334.64C10,300.01,10,265.37,10,230.74z"/>
	<path class="st0" d="M233.22,572.33c10.71-24.02,20.68-46.39,31.07-69.7c52.2,22.69,106.22,20.62,159.91,19.9
		c15.19-0.2,21.41,4.09,19.83,19.8c-1.82,18.2,4.4,42.45-5.14,53.04c-8.32,9.24-33.66,3.53-51.48,3.79
		C335.22,599.91,283.9,595.25,233.22,572.33z"/>
	<path class="st0" d="M1648.95,799.79c15.32,21.08,29.7,40.85,44.58,61.33c-89.75,68.08-192.67,54.33-296.24,55.06
		c0-23.63-0.5-46.21,0.63-68.71c0.14-2.82,8.75-7.28,13.55-7.45c22.85-0.79,45.77-1,68.62-0.24
		C1539.66,841.76,1597.37,836.1,1648.95,799.79z"/>
	<path class="st0" d="M997.97,916.11c-103.83-0.47-206.22,12.71-296.32-54.89c14.32-19.87,28.54-39.62,42.87-59.5
		c19.64,8.91,37.74,21.05,57.52,25.21c32.94,6.93,66.86,9.95,100.53,12.32c27.07,1.9,54.39-0.08,81.56,0.88
		c4.72,0.17,13,6.13,13.22,9.8C998.61,871.31,997.97,892.8,997.97,916.11z"/>
</g>
</svg>
