<?xml version="1.0" encoding="utf-8"?>
<!-- Generator: Adobe Illustrator 24.3.0, SVG Export Plug-In . SVG Version: 6.00 Build 0)  -->
<svg version="1.1" id="Layer_1" xmlns="http://www.w3.org/2000/svg" xmlns:xlink="http://www.w3.org/1999/xlink" x="0px" y="0px"
	 viewBox="0 0 1920 1920" style="enable-background:new 0 0 1920 1920;" xml:space="preserve">
<style type="text/css">
	.st0{fill:#FFFFFF;}
</style>
<g>
	<g>
		<path class="st0" d="M1307.23,1350.4c-356.69,309.91-839.99,238.27-1098.98-61.73c-261.84-303.29-249.72-751,27.63-1036.44
			C512.75-32.72,958.02-58.43,1267.8,189.65c312.29,250.09,404.1,752.96,85.47,1115.6c135.38,134.91,270.92,269.96,406.43,405.04
			c35.96,35.84,72.27,71.34,107.5,107.89c19.04,19.75,52.8,39.79,20.57,71.02c-29.68,28.77-49.38-2.46-67.98-21
			c-154.12-153.59-307.92-307.5-461.56-461.57C1340.86,1389.21,1325.09,1370.18,1307.23,1350.4z M1482.33,783.87
			c-0.66-384.57-313.73-695.71-699.15-694.84C400.66,89.91,89.57,401.9,89.37,784.87c-0.2,384.91,312.1,697.29,696.95,697.13
			C1170.82,1481.83,1482.99,1168.72,1482.33,783.87z"/>
		<path class="st0" d="M1864.22,1919.68c-0.37,0-0.81,0-1.18,0c-21.6-0.59-36.89-17.05-49.09-30.28l-7.42-7.79
			c-154.17-153.73-307.97-307.6-461.63-461.7c-12.05-12.12-23.37-24.91-35.05-38.21l-4.48-5.07
			c-165.85,138.15-369.81,205.53-576.08,191.13c-206.6-14.84-401.7-112.06-535.29-266.82C-75.13,989.3-62.93,532.79,222.37,239.11
			C506.13-52.88,960.59-80.47,1279.58,174.96c164.16,131.46,269.1,330.27,287.98,545.43c18.44,210.97-48.43,417.65-188.63,583.94
			l419.59,418.05c27.63,27.34,55.26,54.75,82.23,82.74c2.72,2.79,5.81,5.66,8.89,8.52c13.37,12.42,30.05,27.85,30.35,49.75
			c0.15,13.67-6.32,26.9-19.11,39.31C1889.28,1913.95,1876.93,1919.68,1864.22,1919.68z M1308.83,1324.1l29.25,32.7
			c11.17,12.71,21.97,24.98,33.44,36.52c153.65,154.1,307.46,307.97,461.55,461.63c2.79,2.72,5.58,5.81,8.45,8.89
			c7.05,7.64,16.75,18.08,22.56,18.22h0.07c2.57,0,6.39-2.28,10.58-6.39c4.85-4.7,7.64-9.04,7.64-11.83
			c-0.07-5.73-10.66-15.51-18.3-22.63c-3.6-3.31-7.2-6.61-10.36-9.92c-26.82-27.85-54.3-55.04-81.64-82.23l-444.58-442.89
			l11.68-13.3c141.16-160.71,208.99-362.86,190.91-569.21c-18-204.95-117.87-394.24-274.02-519.31
			C952.36-38.96,519.5-12.72,249.34,265.34C-22.26,544.91-33.8,979.53,222.52,1276.41c127.09,147.19,312.78,239.7,509.46,253.81
			c202.34,14.18,402.18-54.45,562.89-194L1308.83,1324.1z M786.06,1500.82c-191.09,0-370.73-74.44-505.94-209.72
			C144.88,1155.82,70.48,976.08,70.55,784.87C70.77,391.7,390.43,71.12,783.12,70.24c0.55,0,1.14,0,1.69,0
			c190.84,0,370.29,73.96,505.5,208.33c135.65,134.81,210.53,314.25,210.83,505.27c0.29,191.28-74,371.31-209.28,506.89
			c-135.14,135.43-314.66,210.02-505.53,210.09C786.25,1500.82,786.14,1500.82,786.06,1500.82z M784.81,107.87
			c-0.55,0-1.07,0-1.62,0c-371.98,0.81-674.8,304.52-675.02,677.01c-0.07,181.14,70.43,351.47,198.59,479.7
			c128.05,128.08,298.27,198.63,479.3,198.63c0.07,0,0.15,0,0.26,0c180.81-0.07,350.85-70.77,478.86-199.07
			c128.23-128.45,198.63-299.01,198.33-480.22l0,0c-0.29-180.95-71.28-350.96-199.73-478.64
			C1135.7,177.93,965.58,107.87,784.81,107.87z"/>
	</g>
	<g>
		<path class="st0" d="M820.69,750.69c90.53,0,174.47,0.24,258.4-0.14c26.25-0.12,53.53,1.41,53.51,35
			c-0.02,33.64-27.42,35.03-53.6,34.92c-83.92-0.36-167.84-0.13-258.27-0.13c0,66.39,0.01,130.92-0.01,195.44
			c0,14.49,4.02,30.76-1.25,43.01c-6.43,14.95-20.71,26.53-31.59,39.57c-12.24-13.13-34.18-25.65-35.05-39.48
			c-3.88-62.06-1.76-124.49-1.8-186.78c-0.01-15.62,0-31.24,0-51.71c-79.77,0-156.07,0-232.37,0c-13.04,0-28.18,4.16-38.62-1.06
			c-15.67-7.83-28.05-22.25-41.83-33.87c13.83-11.56,27.23-32.44,41.57-33.11c73.73-3.4,147.7-1.62,221.59-1.64
			c14.38,0,28.75,0,49.66,0c0-66.35-0.01-130.87,0.01-195.39c0-14.49-4.06-30.75,1.2-43.01c6.42-14.96,20.68-26.56,31.56-39.61
			c12.27,13.12,34.26,25.62,35.12,39.45c3.88,62.06,1.75,124.49,1.78,186.78C820.69,714.58,820.69,730.23,820.69,750.69z"/>
		<path class="st0" d="M788.6,1126.79l-14.51-15.65c-3.38-3.6-7.68-7.2-11.94-10.8c-12.64-10.66-27.01-22.78-28.11-40.27
			c-2.87-46.07-2.46-92.74-2.09-137.86c0.15-16.68,0.29-33.4,0.26-50.08v-32.96H518.66c-3.45,0-7.05,0.37-10.66,0.7
			c-11.35,1.1-24.32,2.2-36.37-3.75c-13.41-6.69-23.96-16.5-34.13-26.01c-3.75-3.49-7.5-7.02-11.39-10.25l-17.12-14.44l17.16-14.37
			c3.82-3.23,7.61-7.27,11.39-11.32c11.24-11.9,23.96-25.43,41.37-26.2c54.93-2.57,110.7-2.17,164.53-1.87l88.77,0.22V555.31
			c0-3.97-0.33-8.05-0.66-12.09c-0.99-11.98-2.09-25.54,3.38-38.36c5.81-13.48,15.84-24.1,24.65-33.47
			c3.34-3.53,6.69-7.05,9.74-10.73l13.63-16.42l14.59,15.58c3.38,3.64,7.68,7.16,11.9,10.77c12.71,10.73,27.15,22.89,28.25,40.34
			c2.87,46.26,2.46,93.14,2.09,138.48l-0.29,82.49l55,0.04c63.12,0.04,123.71,0.11,184.55-0.18c15.87,0.22,42.11-0.22,58.42,16.09
			c9.26,9.19,13.96,21.9,13.96,37.73s-4.7,28.51-13.96,37.7c-16.24,16.17-40.86,15.98-58.57,16.02
			c-60.7-0.29-121.32-0.22-184.44-0.18l-54.89,0.04l-0.04,176.62c0,3.89,0.33,7.94,0.66,11.9c0.99,12.05,2.09,25.72-3.45,38.58
			c-5.81,13.52-15.95,24.25-24.87,33.66c-3.27,3.53-6.58,6.98-9.59,10.58L788.6,1126.79z M518.66,801.55h251.17v70.54
			c0.04,16.79-0.11,33.62-0.26,50.45c-0.37,44.49-0.77,90.42,2.02,135.17c1.07,2.28,9.7,9.55,14.84,13.89
			c0.07,0.07,0.15,0.15,0.22,0.22c6.61-7.05,12.64-13.74,15.51-20.5c1.87-4.26,1.18-12.93,0.55-20.58
			c-0.4-5.07-0.81-10.14-0.81-14.99l0.04-214.24l92.52-0.04c63.16,0.04,123.75-0.15,184.59,0.18c9.11-0.11,26.6,0.15,31.89-5.11
			c2.35-2.35,2.87-7.27,2.87-11.02c0-3.71-0.51-8.67-2.87-11.06c-5.22-5.18-22.71-5.14-31.74-5.11
			c-60.7,0.29-121.29,0.18-184.74,0.18l-92.59-0.04l0.29-120.44c0.37-44.68,0.77-90.86-2.02-135.76c-1.1-2.28-9.77-9.59-14.95-14
			c-0.04,0-0.07-0.04-0.15-0.07c-6.61,7.02-12.64,13.74-15.54,20.47c-1.8,4.23-1.1,12.46-0.48,20.47
			c0.44,5.11,0.81,10.25,0.81,15.17v214.17l-126.61-0.22c-53.24-0.26-108.57-0.62-162.58,1.8c-2.79,0.88-10.21,8.63-15.06,13.78
			c7.72,7.16,15.1,13.74,22.89,17.6c2.31,1.18,10.62,0.4,16.06-0.04C509.29,801.96,514.1,801.55,518.66,801.55z"/>
	</g>
</g>
</svg>
