<?xml version="1.0" encoding="utf-8"?>
<!-- Generator: Adobe Illustrator 27.0.0, SVG Export Plug-In . SVG Version: 6.00 Build 0)  -->
<svg version="1.1" id="Layer_1" xmlns="http://www.w3.org/2000/svg" xmlns:xlink="http://www.w3.org/1999/xlink" x="0px" y="0px"
	 viewBox="0 0 250 86.06" style="enable-background:new 0 0 250 86.06;" xml:space="preserve">
<style type="text/css">
	.st0{fill:#FFFFFF;}
</style>
<g>
	<path class="st0" d="M6.75,55.95H1.78v13.84h4.89c4.64,0,7.72-3.16,7.72-6.98C14.39,58.99,11.39,55.95,6.75,55.95 M6.79,67.08H4.9
		v-8.34h1.89c2.59,0,4.44,1.77,4.44,4.19S9.42,67.08,6.79,67.08"/>
	<path class="st0" d="M25.4,64.08c0,1.93-1.19,3.04-2.79,3.04c-1.6,0-2.83-1.15-2.83-3.04v-8.09h-3.16v8.21
		c0,3.53,2.34,5.83,5.91,5.83s6-2.38,6-5.95v-8.09h-3.08v8.09C25.45,64.08,25.4,64.08,25.4,64.08z"/>
	<path class="st0" d="M40.43,62.56c1.11-0.62,1.81-1.77,1.81-3.04c0-2.3-2.01-3.57-4.39-3.57h-6.2v13.84h6.57
		c2.51,0,4.64-1.48,4.64-3.86C42.81,64.41,41.87,63.05,40.43,62.56 M37.18,61.53h-2.42v-3.12h2.42c1.23,0,1.89,0.74,1.89,1.56
		C39.07,60.83,38.42,61.53,37.18,61.53 M34.76,63.83h2.87c1.23,0,2.05,0.7,2.05,1.72c0,0.94-0.7,1.77-2.05,1.77h-2.87V63.83
		L34.76,63.83z"/>
	<path class="st0" d="M52.17,55.95h-3.08l-5.63,13.84h3.29l1.11-2.87h5.38l1.11,2.87h3.45l-5.59-13.8L52.17,55.95z M52.38,64.41
		h-3.61l1.81-4.72L52.38,64.41z"/>
	<rect x="59.48" y="55.95" class="st0" width="3.2" height="13.84"/>
	<path class="st0" d="M76.94,55.95h-6v13.84h3.16v-4.35h2.75c3.29,0,5.3-2.18,5.3-4.8C82.11,57.71,79.89,55.95,76.94,55.95
		 M74.06,58.66h2.55c1.52,0,2.38,0.94,2.38,2.09s-0.86,2.09-2.38,2.09h-2.55V58.66L74.06,58.66z"/>
	<path class="st0" d="M91.06,55.78c-4.11,0-7.31,3.12-7.31,7.19c0,3.98,3.04,7.06,7.23,7.06c4.11,0,7.31-3.12,7.31-7.15
		C98.29,58.86,95.25,55.78,91.06,55.78 M91.02,67.12c-2.42,0-4.15-1.81-4.15-4.23c0-2.34,1.68-4.23,4.15-4.23
		c2.38,0,4.15,1.81,4.15,4.23C95.13,65.27,93.41,67.12,91.02,67.12"/>
	<path class="st0" d="M128.68,65.6c-0.78,0.99-1.97,1.56-3.2,1.52c-2.38,0-4.15-1.77-4.15-4.23s1.72-4.23,4.15-4.23
		c1.19-0.04,2.34,0.49,3.12,1.4l0.04,0.04l2.3-2.05l-0.04-0.04c-1.4-1.52-3.33-2.34-5.38-2.3c-4.11,0-7.31,3.16-7.31,7.19
		s3.12,7.06,7.23,7.06c2.14,0.04,4.15-0.86,5.54-2.46l0.04-0.04l-2.3-1.97L128.68,65.6z"/>
	<polygon class="st0" points="103.96,55.95 100.8,55.95 100.8,69.83 110.61,69.83 110.61,66.99 103.96,66.99 	"/>
	<rect x="112.46" y="55.95" class="st0" width="3.2" height="13.84"/>
	<polygon class="st0" points="136.07,67.08 136.07,64 142.19,64 142.19,61.41 136.07,61.41 136.07,58.7 143.18,58.7 143.18,55.95 
		132.95,55.95 132.95,69.83 143.38,69.83 143.38,67.08 	"/>
	<path class="st0" d="M77.96,22.35c1.15,0,2.05-0.9,2.05-2.05s-0.9-2.05-2.05-2.05s-2.05,0.9-2.05,2.05
		C75.91,21.41,76.81,22.35,77.96,22.35"/>
	<path class="st0" d="M132.13,19.23c1.15,0,2.05-0.9,2.05-2.05s-0.9-2.05-2.05-2.05s-2.05,0.9-2.05,2.05S131.02,19.23,132.13,19.23"
		/>
	<path class="st0" d="M129.3,24c1.15,0,2.05-0.9,2.05-2.05s-0.9-2.05-2.05-2.05s-2.05,0.9-2.05,2.05
		C127.24,23.05,128.15,24,129.3,24"/>
	<path class="st0" d="M132.95,21.94c0,1.15,0.9,2.05,2.05,2.05s2.05-0.9,2.05-2.05s-0.9-2.05-2.05-2.05
		C133.86,19.85,132.95,20.79,132.95,21.94"/>
	<path class="st0" d="M140.39,24.49l-3.45,2.09c0.82,1.36,3.2,6,2.09,12.57h-4.85V26.58h-4.07v12.57h-3.08V26.58h-4.07v12.57h-5.75
		V24.94h-4.07v15.98c0,3.29-2.67,5.91-5.95,5.95h-1.03v4.07h1.03c4.64,0,8.62-3.2,9.73-7.68h25.34l0.37-1.56
		C144.82,32.74,141.45,26.25,140.39,24.49"/>
	<path class="st0" d="M52.58,24.45l-1.81,3.61c5.26,2.63,5.59,7.84,5.17,11.09h-9.03v4.07h12.4l0.37-1.6
		C62.15,30.24,54.88,25.6,52.58,24.45"/>
	<path class="st0" d="M108.44,43.22l1.07-3.61c0.94-3.29,0.33-6.82-1.68-9.57c-3.57-4.8-10.31-5.79-15.11-2.22
		c-0.21,0.12-0.37,0.29-0.57,0.45l-3.57,3.04V20.26h-4.02v18.89H80V24.94h-4.19c-5.59,0-10.14,4.56-10.14,10.14v8.17h4.07v-8.17
		c0-3.37,2.71-6.08,6.08-6.08h0.12v14.25L108.44,43.22L108.44,43.22z M88.6,36.64l6.2-5.3c2.83-2.42,7.1-2.09,9.53,0.78
		c0.08,0.12,0.21,0.25,0.29,0.37c1.27,1.72,1.68,3.94,1.07,6l-0.21,0.7H88.64L88.6,36.64L88.6,36.64z"/>
	<path class="st0" d="M40.22,45.8c-1.15,0-2.05,0.9-2.05,2.05s0.9,2.05,2.05,2.05c1.15,0,2.05-0.9,2.05-2.05
		C42.32,46.75,41.37,45.8,40.22,45.8"/>
	<path class="st0" d="M18.62,45.8c-1.15,0-2.05,0.9-2.05,2.05s0.9,2.05,2.05,2.05s2.05-0.9,2.05-2.05
		C20.67,46.75,19.73,45.8,18.62,45.8"/>
	<path class="st0" d="M13.41,45.8c-1.15,0-2.05,0.9-2.05,2.05s0.9,2.05,2.05,2.05s2.05-0.9,2.05-2.05
		C15.5,46.75,14.56,45.8,13.41,45.8"/>
	<path class="st0" d="M72.91,22.35c1.15,0,2.05-0.9,2.05-2.05s-0.9-2.05-2.05-2.05s-2.05,0.9-2.05,2.05
		C70.86,21.41,71.76,22.35,72.91,22.35"/>
	<path class="st0" d="M40.43,36.69c0,1.36-1.11,2.46-2.46,2.46h-1.85V24.94h-4.27c-5.46,0-9.77,4.44-9.77,10.14v4.11H5.85v-0.53
		c0-4.27,1.03-8.46,3.04-12.24l-3.57-1.89c-2.3,4.35-3.49,9.24-3.49,14.17v4.6h24.35v-8.17c0-3.45,2.46-6.08,5.71-6.08h0.21V43.3
		h5.87c3.61,0,6.53-2.92,6.53-6.53V24.94h-4.07C40.43,24.94,40.43,36.69,40.43,36.69z"/>
	<path class="st0" d="M247.41,48.14c-0.7-0.04-1.44,0-2.09,0.12c0.53-0.57,0.99-1.15,1.4-1.81c1.52-2.38,1.89-5.26,1.11-7.93
		c-0.7,0.12-1.4,0.29-2.01,0.57c0.37-0.66,0.7-1.36,0.94-2.05c0.94-2.63,0.74-5.54-0.62-8.01c-0.66,0.25-1.27,0.57-1.85,0.99
		c0.25-0.74,0.41-1.48,0.49-2.22c0.41-2.79-0.41-5.59-2.22-7.72c-0.57,0.41-1.15,0.86-1.6,1.36c0.08-0.74,0.08-1.52,0.04-2.3
		c-0.21-2.79-1.6-5.38-3.86-7.02c-0.49,0.49-0.94,1.07-1.27,1.68c-0.08-0.74-0.25-1.52-0.45-2.22c-0.78-2.67-2.71-4.89-5.22-6.08
		c-0.37,0.62-0.7,1.23-0.9,1.89c-0.25-0.74-0.53-1.44-0.9-2.09c-1.31-2.46-3.66-4.23-6.41-4.85c-0.49,1.36-0.66,2.83-0.53,4.27
		c-0.29-0.25-0.66-0.45-1.03-0.7c-2.38-1.48-5.3-1.81-7.97-0.99c0.49,2.75,2.18,5.13,4.6,6.57c0.37,0.21,0.74,0.41,1.07,0.57
		c-1.36,0.53-2.59,1.36-3.53,2.42c1.48,1.77,3.57,2.92,5.87,3.29c1.11,2.01,2.87,3.53,5.01,4.35c0.66,2.18,2.05,4.07,3.98,5.34
		c0.16,2.26,1.15,4.44,2.75,6.04c-0.33,2.26,0.21,4.56,1.44,6.49c-0.78,2.14-0.78,4.52,0.04,6.65c-1.23,1.93-1.68,4.23-1.36,6.49
		c-1.6,1.64-2.55,3.78-2.71,6.08c-1.89,1.27-3.29,3.16-3.94,5.34c-2.14,0.82-3.9,2.38-4.97,4.39c-2.26,0.37-4.31,1.52-5.79,3.24
		c-2.75-0.12-5.46,0.9-7.39,2.92c-1.36,1.36-2.09,2.63-2.51,3.86c-0.37,1.23-1.64,1.93-2.87,1.56c-0.74-0.21-1.31-0.82-1.56-1.56
		c-0.37-1.23-1.15-2.55-2.51-3.86c-1.93-1.97-4.64-3.04-7.39-2.92c-1.48-1.72-3.53-2.92-5.75-3.29c-1.07-2.01-2.83-3.57-4.97-4.39
		c-0.62-2.18-2.01-4.11-3.94-5.34c-0.16-2.26-1.11-4.44-2.71-6.08c0.33-2.26-0.16-4.56-1.36-6.49c0.78-2.14,0.82-4.52,0.04-6.65
		c1.23-1.93,1.72-4.23,1.44-6.49c1.6-1.6,2.59-3.78,2.75-6.04c1.93-1.23,3.33-3.12,3.98-5.34c2.14-0.82,3.9-2.38,5.01-4.35
		c2.3-0.37,4.35-1.52,5.87-3.29c-0.99-1.07-2.18-1.89-3.53-2.42c0.37-0.16,0.7-0.37,1.07-0.57c2.42-1.44,4.07-3.82,4.6-6.57
		c-2.67-0.82-5.59-0.45-7.97,0.99c-0.37,0.21-0.7,0.45-1.03,0.7c0.16-1.44,0-2.92-0.49-4.27c-2.71,0.62-5.05,2.38-6.41,4.85
		c-0.37,0.66-0.66,1.36-0.9,2.09c-0.25-0.66-0.53-1.31-0.9-1.89c-2.55,1.19-4.44,3.41-5.22,6.08c-0.21,0.74-0.37,1.48-0.45,2.22
		c-0.37-0.62-0.78-1.15-1.27-1.68c-2.26,1.68-3.65,4.27-3.86,7.06c-0.08,0.74-0.04,1.52,0.04,2.3c-0.49-0.53-1.03-0.99-1.6-1.36
		c-1.85,2.14-2.67,4.93-2.26,7.68c0.08,0.74,0.25,1.52,0.49,2.22c-0.57-0.41-1.19-0.74-1.85-0.99c-1.36,2.46-1.56,5.38-0.62,8.01
		c0.25,0.74,0.57,1.4,0.94,2.05c-0.66-0.29-1.36-0.45-2.01-0.57c-0.78,2.67-0.41,5.59,1.11,7.93c0.41,0.66,0.86,1.27,1.4,1.81
		c-0.7-0.12-1.4-0.16-2.09-0.12c-0.21,2.79,0.78,5.54,2.75,7.52c0.53,0.53,1.11,1.07,1.72,1.48c-0.7,0-1.4,0.12-2.09,0.29
		c0.37,2.79,1.93,5.26,4.27,6.78c0.62,0.41,1.31,0.78,2.01,1.11c-0.7,0.16-1.36,0.41-1.97,0.74c0.94,2.63,3,4.72,5.63,5.75
		c0.7,0.29,1.44,0.49,2.18,0.66c-0.62,0.33-1.23,0.7-1.77,1.15c1.48,2.38,3.94,3.98,6.69,4.44c0.74,0.12,1.52,0.21,2.26,0.16
		c-0.53,0.45-1.07,0.94-1.48,1.48c1.97,2.01,4.68,3.08,7.47,2.92c0.78-0.04,1.52-0.12,2.26-0.29c-0.45,0.53-0.82,1.15-1.15,1.77
		c2.34,1.56,5.22,2.01,7.93,1.27c1.19-0.29,2.3-0.78,3.33-1.48c2.79-1.93,6.49-1.93,9.32,0c1.03,0.66,2.14,1.19,3.33,1.48
		c2.71,0.74,5.59,0.29,7.93-1.27c-0.33-0.62-0.7-1.23-1.15-1.77c0.74,0.16,1.48,0.29,2.26,0.29c2.79,0.16,5.5-0.9,7.47-2.92
		c-0.45-0.53-0.94-1.07-1.48-1.48c0.78,0,1.52-0.04,2.26-0.16c2.75-0.45,5.22-2.05,6.69-4.44c-0.53-0.45-1.15-0.82-1.77-1.15
		c0.74-0.16,1.48-0.37,2.18-0.66c2.63-1.03,4.68-3.12,5.63-5.75c-0.62-0.33-1.27-0.57-1.97-0.74c0.7-0.29,1.36-0.66,2.01-1.11
		c2.34-1.52,3.9-4.02,4.27-6.78c-0.7-0.16-1.4-0.29-2.09-0.29c0.62-0.45,1.19-0.94,1.72-1.48
		C246.59,53.65,247.61,50.94,247.41,48.14 M186.01,69.09c1.64,0.62,3.08,1.77,4.02,3.24c1.19,1.89,1.6,3.53,1.31,5.01
		c-1.48-0.33-2.79-1.4-3.98-3.29C186.38,72.58,185.93,70.81,186.01,69.09 M180.63,64.86c1.48,0.94,2.63,2.38,3.2,4.02
		c0.78,2.09,0.82,3.78,0.25,5.17c-1.36-0.66-2.42-1.97-3.2-4.02C180.22,68.39,180.14,66.58,180.63,64.86 M176.2,59.64
		c1.23,1.27,2.05,2.87,2.3,4.64c0.33,2.22,0,3.86-0.86,5.09c-1.19-0.9-1.97-2.42-2.3-4.64C175.09,62.97,175.38,61.2,176.2,59.64
		 M172.99,53.61c0.94,1.48,1.4,3.24,1.27,5.01c-0.16,2.22-0.82,3.78-1.93,4.8c-0.99-1.15-1.44-2.79-1.27-5.01
		C171.19,56.64,171.84,54.96,172.99,53.61 M167,43.75c0.82-1.56,2.14-2.83,3.74-3.57c0.25,1.77-0.08,3.53-0.9,5.09
		c-1.07,1.97-2.3,3.12-3.74,3.57C165.68,47.36,165.93,45.72,167,43.75 M165.4,40.87c-0.08-1.52,0.53-3.08,1.97-4.8
		c1.15-1.36,2.67-2.3,4.39-2.71c-0.12,1.77-0.82,3.45-1.97,4.76C168.35,39.85,166.88,40.71,165.4,40.87 M168.27,51.26
		c0.49-1.68,1.48-3.2,2.87-4.27c0.62,1.64,0.7,3.45,0.21,5.17c-0.62,2.14-1.6,3.53-2.87,4.27C167.74,55.13,167.66,53.4,168.27,51.26
		 M171.23,31.22c-1.77,1.36-3.37,1.89-4.89,1.72c0.21-1.48,1.15-2.92,2.92-4.27c1.4-1.07,3.08-1.68,4.85-1.72
		C173.65,28.68,172.62,30.16,171.23,31.22 M188.48,12.66c-1.4,1.07-3.12,1.68-4.89,1.68c-2.22,0.04-3.86-0.49-4.93-1.52
		c1.07-1.07,2.67-1.64,4.89-1.68C185.27,11.14,187.04,11.63,188.48,12.66 M185.89,5.43c1.52-0.9,3.29-1.31,5.01-1.15
		c-0.66,1.64-1.85,3-3.37,3.9c-1.93,1.15-3.57,1.52-5.05,1.15C182.89,7.9,184,6.58,185.89,5.43 M178.58,6.09
		c0.86-1.56,2.18-2.79,3.78-3.53c0.25,1.77-0.12,3.53-0.99,5.05c-1.07,1.97-2.34,3.08-3.78,3.53C177.22,9.7,177.51,8.02,178.58,6.09
		 M177.55,15.95c1.72-0.41,3.53-0.25,5.13,0.45c-1.15,1.36-2.71,2.3-4.39,2.67c-2.18,0.49-3.86,0.33-5.13-0.41
		C173.94,17.38,175.38,16.48,177.55,15.95 M171.68,12c0.49-1.68,1.52-3.16,2.96-4.23c0.62,1.64,0.66,3.49,0.12,5.17
		c-0.66,2.14-1.64,3.53-2.96,4.23C171.11,15.86,171.02,14.18,171.68,12 M172.75,21.86c1.6-0.78,3.41-0.99,5.13-0.66
		c-0.82,1.56-2.14,2.79-3.74,3.53c-2.01,0.94-3.7,1.15-5.13,0.66C169.5,24.04,170.74,22.85,172.75,21.86 M166.14,19.27
		c0.12-1.77,0.82-3.45,1.97-4.76c0.94,1.52,1.36,3.24,1.19,5.01c-0.16,2.22-0.86,3.78-1.97,4.76
		C166.38,23.13,165.97,21.49,166.14,19.27 M163.22,22.48c1.23,1.27,2.01,2.92,2.22,4.64c0.29,2.22-0.04,3.86-0.94,5.09
		c-1.19-0.94-1.93-2.46-2.22-4.64C162.03,25.8,162.36,24.04,163.22,22.48 M160.1,31.31c1.48,0.99,2.59,2.42,3.16,4.07
		c0.74,2.09,0.78,3.78,0.16,5.17c-1.36-0.66-2.42-1.97-3.16-4.07C159.65,34.8,159.61,32.99,160.1,31.31 M158.87,40.55
		c1.64,0.66,3.04,1.81,3.94,3.33c1.19,1.89,1.56,3.53,1.23,5.01c-1.44-0.37-2.79-1.44-3.94-3.33
		C159.2,44.08,158.74,42.31,158.87,40.55 M161.95,54.51c-1.23-1.27-2.01-2.87-2.26-4.64c1.72,0.29,3.33,1.15,4.56,2.42
		c1.56,1.6,2.26,3.12,2.26,4.64C164.99,56.85,163.51,56.11,161.95,54.51 M165.6,62.85c-1.48-0.99-2.59-2.38-3.2-4.07
		c1.77-0.08,3.49,0.41,4.97,1.4c1.85,1.23,2.87,2.59,3.2,4.07C169.09,64.53,167.45,64.12,165.6,62.85 M170.94,70.28
		c-1.64-0.66-3.04-1.81-3.98-3.29c1.72-0.45,3.53-0.33,5.13,0.33c2.09,0.82,3.37,1.93,3.98,3.29
		C174.68,71.14,172.99,71.1,170.94,70.28 M177.68,76.4c-1.72-0.29-3.37-1.11-4.6-2.38c1.56-0.82,3.37-1.07,5.09-0.78
		c2.22,0.37,3.7,1.19,4.6,2.38C181.58,76.48,179.89,76.77,177.68,76.4 M185.6,80.92c-1.77,0.08-3.49-0.37-4.97-1.36
		c1.36-1.11,3.08-1.77,4.85-1.85c2.22-0.12,3.86,0.37,4.97,1.36C189.42,80.18,187.82,80.83,185.6,80.92 M194.31,83.71
		c-1.68,0.45-3.53,0.37-5.17-0.29c1.11-1.4,2.63-2.38,4.35-2.79c2.18-0.57,3.86-0.45,5.17,0.29
		C197.84,82.19,196.44,83.13,194.31,83.71 M194.55,76.64c-1.27-1.23-2.09-2.87-2.34-4.6c1.77,0.29,3.37,1.11,4.6,2.34
		c1.56,1.6,2.3,3.12,2.34,4.6C197.63,78.94,196.12,78.21,194.55,76.64 M246.51,40.55c0.12,1.77-0.29,3.53-1.23,5.01
		c-1.19,1.89-2.51,2.96-3.94,3.33c-0.29-1.48,0.04-3.12,1.23-5.01C243.47,42.35,244.86,41.2,246.51,40.55 M245.27,31.27
		c0.49,1.68,0.45,3.49-0.16,5.17c-0.74,2.09-1.81,3.41-3.16,4.07c-0.62-1.36-0.62-3.08,0.16-5.17
		C242.73,33.69,243.84,32.25,245.27,31.27 M239.93,27.12c0.21-1.77,1.03-3.37,2.22-4.64c0.86,1.56,1.19,3.33,0.94,5.05
		c-0.29,2.22-1.07,3.74-2.22,4.64C239.98,31.02,239.65,29.33,239.93,27.12 M235.58,45.27c-0.86-1.56-1.15-3.33-0.9-5.09
		c1.6,0.74,2.92,2.01,3.74,3.57c1.07,1.97,1.31,3.66,0.9,5.09C237.88,48.39,236.65,47.24,235.58,45.27 M236.98,56.44
		c-1.31-0.74-2.26-2.14-2.87-4.27c-0.49-1.68-0.41-3.49,0.21-5.17c1.4,1.07,2.42,2.59,2.87,4.27
		C237.76,53.44,237.68,55.13,236.98,56.44 M235.62,38.16c-1.15-1.36-1.85-3.04-1.97-4.76c1.72,0.41,3.24,1.36,4.39,2.71
		c1.44,1.68,2.05,3.29,1.97,4.8C238.54,40.75,237.06,39.89,235.62,38.16 M237.26,14.55c1.15,1.31,1.85,3,1.97,4.76
		c0.16,2.22-0.25,3.86-1.19,5.01c-1.11-0.99-1.81-2.55-1.97-4.76C235.91,17.79,236.32,16.03,237.26,14.55 M230.82,7.77
		c1.4,1.07,2.46,2.55,2.96,4.23c0.66,2.14,0.57,3.82-0.12,5.17c-1.31-0.74-2.3-2.09-2.96-4.23C230.16,11.22,230.2,9.42,230.82,7.77
		 M223.06,2.56c1.6,0.74,2.92,1.97,3.78,3.53c1.07,1.97,1.36,3.61,0.99,5.09c-1.44-0.45-2.71-1.56-3.78-3.53
		C223.18,6.09,222.81,4.28,223.06,2.56 M217.84,8.19c-1.52-0.9-2.71-2.26-3.37-3.9c1.77-0.16,3.53,0.25,5.01,1.15
		c1.93,1.15,3,2.46,3.37,3.9C221.41,9.7,219.77,9.34,217.84,8.19 M221.82,14.35c-1.77-0.04-3.49-0.62-4.89-1.68
		c1.44-1.03,3.16-1.56,4.93-1.52c2.22,0.04,3.82,0.62,4.89,1.68C225.68,13.89,224.04,14.39,221.82,14.35 M222.69,16.4
		c1.6-0.7,3.41-0.86,5.13-0.45c2.18,0.53,3.61,1.44,4.44,2.67c-1.27,0.78-3,0.94-5.13,0.41C225.4,18.66,223.84,17.71,222.69,16.4
		 M227.53,21.2c1.72-0.33,3.53-0.12,5.13,0.66c2.01,0.94,3.2,2.14,3.74,3.57c-1.44,0.49-3.12,0.29-5.13-0.66
		C229.67,24.04,228.35,22.76,227.53,21.2 M231.27,26.95c1.77,0.04,3.49,0.66,4.85,1.72c1.77,1.36,2.71,2.79,2.92,4.27
		c-1.48,0.16-3.12-0.37-4.89-1.72C232.75,30.16,231.72,28.64,231.27,26.95 M232.42,53.61c1.15,1.36,1.81,3.04,1.93,4.8
		c0.16,2.22-0.29,3.86-1.27,5.01c-1.11-1.03-1.77-2.59-1.93-4.8C231.02,56.85,231.43,55.08,232.42,53.61 M226.92,64.28
		c0.25-1.77,1.07-3.37,2.3-4.64c0.82,1.56,1.15,3.33,0.86,5.09c-0.33,2.22-1.11,3.7-2.3,4.64
		C226.87,68.14,226.59,66.46,226.92,64.28 M221.58,68.92c0.62-1.64,1.72-3.08,3.2-4.02c0.49,1.68,0.41,3.49-0.21,5.17
		c-0.78,2.09-1.85,3.41-3.2,4.02C220.71,72.7,220.8,71.02,221.58,68.92 M215.38,72.33c0.94-1.48,2.34-2.63,3.98-3.29
		c0.12,1.77-0.33,3.53-1.31,5.01c-1.19,1.89-2.55,2.92-3.98,3.29C213.77,75.86,214.18,74.18,215.38,72.33 M208.6,74.34
		c1.23-1.27,2.83-2.09,4.6-2.34c-0.25,1.77-1.07,3.37-2.34,4.6c-1.56,1.6-3.08,2.34-4.6,2.34C206.3,77.47,207.04,75.95,208.6,74.34
		 M211.1,83.71c-2.18-0.57-3.57-1.52-4.35-2.79c1.31-0.74,3-0.86,5.17-0.29c1.72,0.45,3.24,1.44,4.35,2.79
		C214.64,84.08,212.83,84.16,211.1,83.71 M219.81,80.92c-2.22-0.12-3.82-0.74-4.85-1.85c1.15-0.99,2.75-1.48,4.97-1.36
		c1.77,0.08,3.45,0.7,4.85,1.85C223.34,80.55,221.58,81.04,219.81,80.92 M227.7,76.4c-2.22,0.37-3.86,0.08-5.09-0.78
		c0.9-1.19,2.38-2.01,4.6-2.38c1.72-0.29,3.53-0.04,5.09,0.78C231.06,75.25,229.46,76.11,227.7,76.4 M234.47,70.28
		c-2.09,0.82-3.78,0.9-5.17,0.33c0.62-1.36,1.89-2.46,3.98-3.29c1.64-0.66,3.45-0.78,5.13-0.33
		C237.51,68.47,236.11,69.62,234.47,70.28 M243.01,58.82c-0.62,1.64-1.72,3.08-3.2,4.07c-1.85,1.23-3.49,1.68-4.97,1.4
		c0.33-1.48,1.36-2.83,3.2-4.07C239.48,59.23,241.25,58.74,243.01,58.82 M238.91,56.93c0-1.52,0.7-3.04,2.26-4.64
		c1.23-1.27,2.83-2.14,4.56-2.42c-0.25,1.77-1.03,3.37-2.26,4.64C241.91,56.11,240.39,56.89,238.91,56.93"/>
	<path class="st0" d="M177.43,46.5v1.15c1.44,2.79,3.08,5.5,4.89,8.09h-4.07c0,0,0.82,1.68,3.29,1.68h42.26
		c2.51,0,3.29-1.68,3.29-1.68h-3.7c1.89-2.79,3.57-5.67,5.09-8.67h2.01v-3.2h-11.01c-11.58-9.4-14.05-25.46-7.31-37.49
		C192.95,10.2,178.5,26.95,177.43,46.5 M178.29,46.54c5.71-3.53,12.24-5.59,18.93-5.95v5.95H178.29L178.29,46.54z M218.58,45.23
		l-0.94,1.27H199.9v-6C206.38,40.55,212.79,42.19,218.58,45.23 M214.92,41.74c-11.62-4.52-24.64-3.7-35.56,2.26
		c2.05-16.63,13.8-30.43,29.86-35.15C204.62,19.97,206.87,32.78,214.92,41.74"/>
	<path class="st0" d="M200.84,71.43h3.74c2.51,0,3.29-1.68,3.29-1.68h-10.35C197.51,69.75,198.33,71.43,200.84,71.43"/>
	<path class="st0" d="M215.42,66.25H190c0,0,0.82,1.68,3.29,1.68h18.81C214.6,67.9,215.42,66.25,215.42,66.25"/>
	<path class="st0" d="M221.17,62.72h-36.92c0,0,0.82,1.68,3.29,1.68h30.31C220.35,64.41,221.17,62.72,221.17,62.72"/>
	<path class="st0" d="M224.66,59.23h-43.9c0,0,0.82,1.68,3.29,1.68h37.33C223.88,60.87,224.66,59.23,224.66,59.23"/>
</g>
</svg>
